<svg width="277" height="53" viewBox="0 0 277 53" fill="none" xmlns="http://www.w3.org/2000/svg">
<path d="M33 22H34C35.0609 22 36.0783 22.4214 36.8284 23.1716C37.5786 23.9217 38 24.9391 38 26C38 27.0609 37.5786 28.0783 36.8284 28.8284C36.0783 29.5786 35.0609 30 34 30H33" stroke="#EC662A" stroke-width="2" stroke-linecap="round" stroke-linejoin="round"/>
<path d="M17 21.9984H33V30.9984C33 32.0593 32.5786 33.0767 31.8284 33.8268C31.0783 34.577 30.0609 34.9984 29 34.9984H21C19.9391 34.9984 18.9217 34.577 18.1716 33.8268C17.4214 33.0767 17 32.0593 17 30.9984V21.9984Z" fill="#EC662A" stroke="#EC662A" stroke-width="2" stroke-linecap="round" stroke-linejoin="round"/>
<path d="M21 15V18" stroke="#EC662A" stroke-width="2" stroke-linecap="round" stroke-linejoin="round"/>
<path d="M25 15V18" stroke="#FC7E3D" stroke-width="2" stroke-linecap="round" stroke-linejoin="round"/>
<path d="M28.9985 15V18" stroke="#FC7D3C" stroke-width="2" stroke-linecap="round" stroke-linejoin="round"/>
<path d="M72.4574 22.0938C72.3778 21.3494 72.0426 20.7699 71.4517 20.3551C70.8665 19.9403 70.1051 19.733 69.1676 19.733C68.5085 19.733 67.9432 19.8324 67.4716 20.0312C67 20.2301 66.6392 20.5 66.3892 20.8409C66.1392 21.1818 66.0114 21.571 66.0057 22.0085C66.0057 22.3722 66.0881 22.6875 66.2528 22.9545C66.4233 23.2216 66.6534 23.4489 66.9432 23.6364C67.233 23.8182 67.554 23.9716 67.9062 24.0966C68.2585 24.2216 68.6136 24.3267 68.9716 24.4119L70.608 24.821C71.267 24.9744 71.9006 25.1818 72.5085 25.4432C73.1222 25.7045 73.6705 26.0341 74.1534 26.4318C74.642 26.8295 75.0284 27.3097 75.3125 27.8722C75.5966 28.4347 75.7386 29.0937 75.7386 29.8494C75.7386 30.8722 75.4773 31.7727 74.9545 32.5511C74.4318 33.3239 73.6761 33.929 72.6875 34.3665C71.7045 34.7983 70.5142 35.0142 69.1165 35.0142C67.7585 35.0142 66.5795 34.804 65.5795 34.3835C64.5852 33.9631 63.8068 33.3494 63.2443 32.5426C62.6875 31.7358 62.3864 30.7528 62.3409 29.5938H65.4517C65.4972 30.2017 65.6847 30.7074 66.0142 31.1108C66.3438 31.5142 66.7727 31.8153 67.3011 32.0142C67.8352 32.2131 68.4318 32.3125 69.0909 32.3125C69.7784 32.3125 70.3807 32.2102 70.8977 32.0057C71.4205 31.7955 71.8295 31.5057 72.125 31.1364C72.4205 30.7614 72.571 30.3239 72.5767 29.8239C72.571 29.3693 72.4375 28.9943 72.1761 28.6989C71.9148 28.3977 71.5483 28.1477 71.0767 27.9489C70.6108 27.7443 70.0653 27.5625 69.4403 27.4034L67.4545 26.892C66.017 26.5227 64.8807 25.9631 64.0455 25.2131C63.2159 24.4574 62.8011 23.4545 62.8011 22.2045C62.8011 21.1761 63.0795 20.2756 63.6364 19.5028C64.1989 18.7301 64.9631 18.1307 65.929 17.7045C66.8949 17.2727 67.9886 17.0568 69.2102 17.0568C70.4489 17.0568 71.5341 17.2727 72.4659 17.7045C73.4034 18.1307 74.1392 18.7244 74.6733 19.4858C75.2074 20.2415 75.483 21.1108 75.5 22.0938H72.4574ZM84.1314 35.0057C82.8246 35.0057 81.7024 34.7188 80.7649 34.1449C79.8331 33.571 79.1143 32.7784 78.6087 31.767C78.1087 30.75 77.8587 29.5795 77.8587 28.2557C77.8587 26.9261 78.1143 25.7528 78.6257 24.7358C79.1371 23.7131 79.8587 22.9176 80.7905 22.3494C81.728 21.7756 82.8359 21.4886 84.1143 21.4886C85.1768 21.4886 86.1172 21.6847 86.9354 22.0767C87.7592 22.4631 88.4155 23.0114 88.9041 23.7216C89.3928 24.4261 89.6712 25.25 89.7393 26.1932H86.7905C86.6712 25.5625 86.3871 25.0369 85.9382 24.6165C85.495 24.1903 84.9013 23.9773 84.157 23.9773C83.5263 23.9773 82.9723 24.1477 82.495 24.4886C82.0178 24.8239 81.6456 25.3068 81.3786 25.9375C81.1172 26.5682 80.9865 27.3239 80.9865 28.2045C80.9865 29.0966 81.1172 29.8636 81.3786 30.5057C81.6399 31.142 82.0064 31.6335 82.478 31.9801C82.9553 32.321 83.5149 32.4915 84.157 32.4915C84.6115 32.4915 85.0178 32.4062 85.3757 32.2358C85.7393 32.0597 86.0433 31.8068 86.2876 31.4773C86.532 31.1477 86.6996 30.7472 86.7905 30.2756H89.7393C89.6655 31.2017 89.3928 32.0227 88.9212 32.7386C88.4496 33.4489 87.8075 34.0057 86.995 34.4091C86.1825 34.8068 85.228 35.0057 84.1314 35.0057ZM95.358 27.0795V34.75H92.2727V17.2955H95.2898V23.8835H95.4432C95.75 23.1449 96.2244 22.5625 96.8665 22.1364C97.5142 21.7045 98.3381 21.4886 99.3381 21.4886C100.247 21.4886 101.04 21.679 101.716 22.0597C102.392 22.4403 102.915 22.9972 103.284 23.7301C103.659 24.4631 103.847 25.358 103.847 26.4148V34.75H100.761V26.892C100.761 26.0114 100.534 25.3267 100.08 24.8381C99.6307 24.3437 99 24.0966 98.1875 24.0966C97.642 24.0966 97.1534 24.2159 96.7216 24.4545C96.2955 24.6875 95.9602 25.0256 95.7159 25.4688C95.4773 25.9119 95.358 26.4489 95.358 27.0795ZM112.702 35.0057C111.423 35.0057 110.315 34.7244 109.378 34.1619C108.44 33.5994 107.713 32.8125 107.196 31.8011C106.685 30.7898 106.429 29.608 106.429 28.2557C106.429 26.9034 106.685 25.7187 107.196 24.7017C107.713 23.6847 108.44 22.8949 109.378 22.3324C110.315 21.7699 111.423 21.4886 112.702 21.4886C113.98 21.4886 115.088 21.7699 116.026 22.3324C116.963 22.8949 117.688 23.6847 118.199 24.7017C118.716 25.7187 118.974 26.9034 118.974 28.2557C118.974 29.608 118.716 30.7898 118.199 31.8011C117.688 32.8125 116.963 33.5994 116.026 34.1619C115.088 34.7244 113.98 35.0057 112.702 35.0057ZM112.719 32.5341C113.412 32.5341 113.991 32.3437 114.457 31.9631C114.923 31.5767 115.27 31.0597 115.497 30.4119C115.73 29.7642 115.847 29.0426 115.847 28.2472C115.847 27.446 115.73 26.7216 115.497 26.0739C115.27 25.4205 114.923 24.9006 114.457 24.5142C113.991 24.1278 113.412 23.9347 112.719 23.9347C112.009 23.9347 111.418 24.1278 110.946 24.5142C110.48 24.9006 110.131 25.4205 109.898 26.0739C109.67 26.7216 109.557 27.446 109.557 28.2472C109.557 29.0426 109.67 29.7642 109.898 30.4119C110.131 31.0597 110.48 31.5767 110.946 31.9631C111.418 32.3437 112.009 32.5341 112.719 32.5341ZM127.303 35.0057C126.025 35.0057 124.917 34.7244 123.979 34.1619C123.042 33.5994 122.315 32.8125 121.798 31.8011C121.286 30.7898 121.031 29.608 121.031 28.2557C121.031 26.9034 121.286 25.7187 121.798 24.7017C122.315 23.6847 123.042 22.8949 123.979 22.3324C124.917 21.7699 126.025 21.4886 127.303 21.4886C128.582 21.4886 129.69 21.7699 130.627 22.3324C131.565 22.8949 132.289 23.6847 132.8 24.7017C133.317 25.7187 133.576 26.9034 133.576 28.2557C133.576 29.608 133.317 30.7898 132.8 31.8011C132.289 32.8125 131.565 33.5994 130.627 34.1619C129.69 34.7244 128.582 35.0057 127.303 35.0057ZM127.32 32.5341C128.013 32.5341 128.593 32.3437 129.059 31.9631C129.525 31.5767 129.871 31.0597 130.099 30.4119C130.332 29.7642 130.448 29.0426 130.448 28.2472C130.448 27.446 130.332 26.7216 130.099 26.0739C129.871 25.4205 129.525 24.9006 129.059 24.5142C128.593 24.1278 128.013 23.9347 127.32 23.9347C126.61 23.9347 126.019 24.1278 125.548 24.5142C125.082 24.9006 124.732 25.4205 124.499 26.0739C124.272 26.7216 124.158 27.446 124.158 28.2472C124.158 29.0426 124.272 29.7642 124.499 30.4119C124.732 31.0597 125.082 31.5767 125.548 31.9631C126.019 32.3437 126.61 32.5341 127.32 32.5341ZM139.28 17.2955V34.75H136.195V17.2955H139.28ZM148.542 17.2955H152.411L157.593 29.9432H157.798L162.979 17.2955H166.849V34.75H163.815V22.7585H163.653L158.829 34.6989H156.562L151.738 22.733H151.576V34.75H148.542V17.2955ZM175.951 35.0057C174.638 35.0057 173.505 34.733 172.55 34.1875C171.602 33.6364 170.871 32.858 170.36 31.8523C169.849 30.8409 169.593 29.6506 169.593 28.2812C169.593 26.9347 169.849 25.7528 170.36 24.7358C170.877 23.7131 171.599 22.9176 172.525 22.3494C173.451 21.7756 174.539 21.4886 175.789 21.4886C176.596 21.4886 177.357 21.6193 178.073 21.8807C178.795 22.1364 179.431 22.5341 179.982 23.0739C180.539 23.6136 180.977 24.3011 181.295 25.1364C181.613 25.9659 181.772 26.9545 181.772 28.1023V29.0483H171.042V26.9688H178.815C178.809 26.3778 178.681 25.8523 178.431 25.392C178.181 24.9261 177.832 24.5597 177.383 24.2926C176.94 24.0256 176.423 23.892 175.832 23.892C175.201 23.892 174.647 24.0455 174.17 24.3523C173.692 24.6534 173.32 25.0511 173.053 25.5455C172.792 26.0341 172.658 26.571 172.653 27.1562V28.9716C172.653 29.733 172.792 30.3864 173.07 30.9318C173.349 31.4716 173.738 31.8864 174.238 32.1761C174.738 32.4602 175.323 32.6023 175.994 32.6023C176.442 32.6023 176.849 32.5398 177.212 32.4148C177.576 32.2841 177.891 32.0938 178.158 31.8438C178.425 31.5938 178.627 31.2841 178.763 30.9148L181.644 31.2386C181.462 32 181.116 32.6648 180.604 33.233C180.099 33.7955 179.451 34.233 178.661 34.5455C177.871 34.8523 176.968 35.0057 175.951 35.0057ZM188.149 35.0142C187.32 35.0142 186.572 34.8665 185.908 34.571C185.249 34.2699 184.726 33.8267 184.339 33.2415C183.959 32.6562 183.768 31.9347 183.768 31.0767C183.768 30.3381 183.905 29.7273 184.178 29.2443C184.45 28.7614 184.822 28.375 185.294 28.0852C185.766 27.7955 186.297 27.5767 186.888 27.429C187.484 27.2756 188.101 27.1648 188.737 27.0966C189.504 27.017 190.126 26.946 190.604 26.8835C191.081 26.8153 191.428 26.7131 191.643 26.5767C191.865 26.4347 191.976 26.2159 191.976 25.9205V25.8693C191.976 25.2273 191.786 24.7301 191.405 24.3778C191.024 24.0256 190.476 23.8494 189.76 23.8494C189.004 23.8494 188.405 24.0142 187.962 24.3438C187.524 24.6733 187.229 25.0625 187.075 25.5114L184.195 25.1023C184.422 24.3068 184.797 23.642 185.32 23.108C185.842 22.5682 186.482 22.1648 187.237 21.8977C187.993 21.625 188.828 21.4886 189.743 21.4886C190.374 21.4886 191.001 21.5625 191.626 21.7102C192.251 21.858 192.822 22.1023 193.339 22.4432C193.857 22.7784 194.271 23.2358 194.584 23.8153C194.902 24.3949 195.061 25.1193 195.061 25.9886V34.75H192.095V32.9517H191.993C191.805 33.3153 191.541 33.6562 191.2 33.9744C190.865 34.2869 190.442 34.5398 189.93 34.733C189.425 34.9205 188.831 35.0142 188.149 35.0142ZM188.95 32.7472C189.57 32.7472 190.107 32.625 190.561 32.3807C191.016 32.1307 191.365 31.8011 191.609 31.392C191.859 30.983 191.984 30.5369 191.984 30.054V28.5114C191.888 28.5909 191.723 28.6648 191.49 28.733C191.263 28.8011 191.007 28.8608 190.723 28.9119C190.439 28.9631 190.158 29.0085 189.879 29.0483C189.601 29.0881 189.359 29.1222 189.155 29.1506C188.695 29.2131 188.283 29.3153 187.919 29.4574C187.555 29.5994 187.268 29.7983 187.058 30.054C186.848 30.304 186.743 30.6278 186.743 31.0256C186.743 31.5938 186.95 32.0227 187.365 32.3125C187.78 32.6023 188.308 32.7472 188.95 32.7472ZM201.249 17.2955V34.75H198.163V17.2955H201.249Z" fill="white"/>
</svg>
