<svg width="330" height="44" viewBox="0 0 330 44" fill="none" xmlns="http://www.w3.org/2000/svg">
<path d="M33 14.6667H34.8333C36.7783 14.6667 38.6435 15.4393 40.0188 16.8146C41.394 18.1898 42.1667 20.0551 42.1667 22C42.1667 23.9449 41.394 25.8102 40.0188 27.1855C38.6435 28.5607 36.7783 29.3334 34.8333 29.3334H33" stroke="#EC662A" stroke-width="3.66667" stroke-linecap="round" stroke-linejoin="round"/>
<path d="M3.66699 14.664H33.0003V31.164C33.0003 33.1089 32.2277 34.9742 30.8524 36.3495C29.4772 37.7247 27.6119 38.4973 25.667 38.4973H11.0003C9.0554 38.4973 7.19014 37.7247 5.81488 36.3495C4.43961 34.9742 3.66699 33.1089 3.66699 31.164V14.664Z" fill="#EC662A" stroke="#EC662A" stroke-width="3.66667" stroke-linecap="round" stroke-linejoin="round"/>
<path d="M11 1.83331V7.33331" stroke="#EC662A" stroke-width="3.66667" stroke-linecap="round" stroke-linejoin="round"/>
<path d="M18.333 1.83331V7.33331" stroke="#FC7E3D" stroke-width="3.66667" stroke-linecap="round" stroke-linejoin="round"/>
<path d="M25.6631 1.83331V7.33331" stroke="#FC7D3C" stroke-width="3.66667" stroke-linecap="round" stroke-linejoin="round"/>
<path d="M74.7033 36.44C70.626 36.44 67.5607 35.5307 65.5073 33.712C63.4833 31.8933 62.3393 29.4 62.0753 26.232H67.7073C67.9127 28.0507 68.514 29.4733 69.5113 30.5C70.538 31.5267 72.2687 32.04 74.7033 32.04C76.4633 32.04 77.886 31.6 78.9713 30.72C80.086 29.84 80.6433 28.6667 80.6433 27.2C80.6433 25.7333 80.1887 24.6627 79.2793 23.988C78.37 23.3133 76.6393 22.7707 74.0873 22.36C70.186 21.8027 67.3553 20.8493 65.5953 19.5C63.8647 18.1507 62.9993 16.0387 62.9993 13.164C62.9993 10.5533 64.0113 8.39733 66.0353 6.696C68.0593 4.99467 70.6993 4.144 73.9553 4.144C80.9073 4.144 84.7207 7.18 85.3953 13.252H80.0273C79.734 11.58 79.1033 10.3773 78.1353 9.644C77.1967 8.91067 75.8033 8.544 73.9553 8.544C72.2247 8.544 70.89 8.92533 69.9513 9.688C69.0127 10.4213 68.5433 11.4187 68.5433 12.68C68.5433 14.0587 68.9687 15.0853 69.8193 15.76C70.6993 16.4053 72.4447 16.9187 75.0553 17.3C78.986 17.8573 81.8313 18.8107 83.5913 20.16C85.3807 21.5093 86.2753 23.6947 86.2753 26.716C86.2753 29.4733 85.19 31.7907 83.0193 33.668C80.878 35.516 78.106 36.44 74.7033 36.44ZM103.949 36.44C100.576 36.44 97.7889 35.3987 95.5889 33.316C93.4182 31.204 92.3329 28.3587 92.3329 24.78V24.428C92.3329 20.8787 93.4329 18.004 95.6329 15.804C97.8622 13.604 100.634 12.504 103.949 12.504C106.765 12.504 109.156 13.208 111.121 14.616C113.086 15.9947 114.201 18.1653 114.465 21.128H109.317C108.877 18.224 107.117 16.772 104.037 16.772C102.189 16.772 100.678 17.4467 99.5049 18.796C98.3609 20.1453 97.7889 21.9933 97.7889 24.34V24.692C97.7889 27.1853 98.3462 29.092 99.4609 30.412C100.605 31.7027 102.174 32.348 104.169 32.348C105.636 32.348 106.882 31.9227 107.909 31.072C108.936 30.2213 109.537 29.004 109.713 27.42H114.597C114.421 30.0893 113.365 32.26 111.429 33.932C109.493 35.604 107 36.44 103.949 36.44ZM121.553 2.34H126.877V16.64C127.464 15.4373 128.388 14.4547 129.649 13.692C130.94 12.9 132.495 12.504 134.313 12.504C136.748 12.504 138.669 13.252 140.077 14.748C141.485 16.2147 142.189 18.4733 142.189 21.524V36H136.865V22.008C136.865 20.248 136.499 18.972 135.765 18.18C135.032 17.3587 133.873 16.948 132.289 16.948C130.705 16.948 129.4 17.432 128.373 18.4C127.376 19.3387 126.877 20.688 126.877 22.448V36H121.553V2.34ZM160.991 32.304C162.985 32.304 164.54 31.6293 165.655 30.28C166.769 28.9013 167.327 27.024 167.327 24.648V24.34C167.327 21.964 166.769 20.1013 165.655 18.752C164.54 17.3733 162.985 16.684 160.991 16.684C158.996 16.684 157.427 17.3587 156.283 18.708C155.168 20.0573 154.611 21.92 154.611 24.296V24.648C154.611 27.024 155.168 28.9013 156.283 30.28C157.397 31.6293 158.967 32.304 160.991 32.304ZM169.439 33.184C167.209 35.3547 164.379 36.44 160.947 36.44C157.515 36.44 154.684 35.3693 152.455 33.228C150.255 31.0573 149.155 28.2267 149.155 24.736V24.384C149.155 20.864 150.269 18.004 152.499 15.804C154.728 13.604 157.559 12.504 160.991 12.504C164.393 12.504 167.209 13.5893 169.439 15.76C171.668 17.9307 172.783 20.7613 172.783 24.252V24.604C172.783 28.1533 171.668 31.0133 169.439 33.184ZM190.261 32.304C192.256 32.304 193.81 31.6293 194.925 30.28C196.04 28.9013 196.597 27.024 196.597 24.648V24.34C196.597 21.964 196.04 20.1013 194.925 18.752C193.81 17.3733 192.256 16.684 190.261 16.684C188.266 16.684 186.697 17.3587 185.553 18.708C184.438 20.0573 183.881 21.92 183.881 24.296V24.648C183.881 27.024 184.438 28.9013 185.553 30.28C186.668 31.6293 188.237 32.304 190.261 32.304ZM198.709 33.184C196.48 35.3547 193.649 36.44 190.217 36.44C186.785 36.44 183.954 35.3693 181.725 33.228C179.525 31.0573 178.425 28.2267 178.425 24.736V24.384C178.425 20.864 179.54 18.004 181.769 15.804C183.998 13.604 186.829 12.504 190.261 12.504C193.664 12.504 196.48 13.5893 198.709 15.76C200.938 17.9307 202.053 20.7613 202.053 24.252V24.604C202.053 28.1533 200.938 31.0133 198.709 33.184ZM209.367 2.34H214.691V36H209.367V2.34ZM223.993 4.54H231.825L240.097 26.012L248.193 4.54H255.937V36H250.085V12.24L240.713 36H238.821L229.273 12.24V36H223.993V4.54ZM274.974 36.44C271.513 36.44 268.697 35.384 266.526 33.272C264.385 31.16 263.314 28.3147 263.314 24.736V24.384C263.314 20.864 264.385 18.004 266.526 15.804C268.697 13.604 271.439 12.504 274.754 12.504C277.863 12.504 280.445 13.472 282.498 15.408C284.581 17.344 285.622 20.248 285.622 24.12V25.66H268.77C268.858 27.86 269.43 29.5467 270.486 30.72C271.571 31.8933 273.111 32.48 275.106 32.48C278.215 32.48 279.975 31.3067 280.386 28.96H285.534C285.153 31.3947 284.038 33.2573 282.19 34.548C280.371 35.8093 277.966 36.44 274.974 36.44ZM280.342 22.096C280.049 18.2827 278.186 16.376 274.754 16.376C273.17 16.376 271.85 16.8893 270.794 17.916C269.767 18.9133 269.122 20.3067 268.858 22.096H280.342ZM298.992 36.44C296.734 36.44 294.886 35.8827 293.448 34.768C292.011 33.624 291.292 31.908 291.292 29.62C291.292 27.0973 292.363 25.2493 294.504 24.076C296.675 22.9027 299.535 22.316 303.084 22.316H305.944V21.128C305.944 19.5147 305.636 18.3413 305.02 17.608C304.404 16.8747 303.319 16.508 301.764 16.508C299.154 16.508 297.687 17.7107 297.364 20.116H292.216C292.451 17.564 293.463 15.6573 295.252 14.396C297.042 13.1347 299.315 12.504 302.072 12.504C308.203 12.504 311.268 15.3053 311.268 20.908V36H306.032V33.184C304.331 35.3547 301.984 36.44 298.992 36.44ZM300.268 32.612C301.97 32.612 303.334 32.2013 304.36 31.38C305.416 30.5587 305.944 29.4147 305.944 27.948V25.66H303.216C298.787 25.66 296.572 26.9067 296.572 29.4C296.572 31.5413 297.804 32.612 300.268 32.612ZM319.874 2.34H325.198V36H319.874V2.34Z" fill="#272727"/>
</svg>
