<svg width="44" height="44" viewBox="0 0 44 44" fill="none" xmlns="http://www.w3.org/2000/svg">
<path d="M33 14.6665H34.8333C36.7783 14.6665 38.6435 15.4391 40.0188 16.8144C41.394 18.1897 42.1667 20.0549 42.1667 21.9998C42.1667 23.9448 41.394 25.81 40.0188 27.1853C38.6435 28.5606 36.7783 29.3332 34.8333 29.3332H33" stroke="#EC662A" stroke-width="3.66667" stroke-linecap="round" stroke-linejoin="round"/>
<path d="M3.66602 14.6641H32.9993V31.1641C32.9993 33.109 32.2267 34.9742 30.8515 36.3495C29.4762 37.7248 27.6109 38.4974 25.666 38.4974H10.9993C9.05443 38.4974 7.18917 37.7248 5.8139 36.3495C4.43863 34.9742 3.66602 33.109 3.66602 31.1641V14.6641Z" fill="#EC662A" stroke="#EC662A" stroke-width="3.66667" stroke-linecap="round" stroke-linejoin="round"/>
<path d="M11 1.8335V7.3335" stroke="#EC662A" stroke-width="3.66667" stroke-linecap="round" stroke-linejoin="round"/>
<path d="M18.334 1.8335V7.3335" stroke="#FC7E3D" stroke-width="3.66667" stroke-linecap="round" stroke-linejoin="round"/>
<path d="M25.6641 1.8335V7.3335" stroke="#FC7D3C" stroke-width="3.66667" stroke-linecap="round" stroke-linejoin="round"/>
</svg>
