<svg width="360" height="456" viewBox="0 0 360 456" fill="none" xmlns="http://www.w3.org/2000/svg">
<g opacity="0.9">
<path d="M362.625 308.031C363.788 320.148 364.55 332.337 365.197 344.449C367.622 389.481 368.798 434.623 368.736 479.813C368.693 509.745 368.084 541.45 355.524 569.558C343.536 596.384 299.232 598.39 274.909 598.928C221.446 600.101 167.412 587.178 119.217 563.245C73.037 540.316 20.989 504.871 -6.25909 459.981C-21.6001 434.704 -27.2297 404.886 -14.5083 377.259C-6.30672 359.449 8.67233 345.883 23.4085 333.137C94.6839 271.518 174.518 221.488 261.716 187.963C272.999 183.627 284.839 179.505 296.641 180.772C318.789 183.16 334.277 203.605 343.303 224.256C354.753 250.463 359.844 279.037 362.63 308.027L362.625 308.031Z" fill="#C6E0FF"/>
</g>
<g opacity="0.9">
<path d="M278.285 111.216C356.719 78.2098 443.293 123.242 484.082 193.309C502.628 225.162 511.492 266.015 492.093 299.493C475.337 328.396 443.431 346.979 411.42 353.902C371.989 362.431 330.743 356.004 293.326 342.038C260.168 329.664 236.377 301.099 220.593 269.66C217.898 264.295 215.478 258.754 213.368 253.069C197.98 211.606 204.714 167.46 237.573 137.193C249.537 126.177 263.392 117.481 278.285 111.216Z" fill="#F98498"/>
</g>
<g opacity="0.6">
<path d="M340.368 202.005C326.251 217.657 307.672 229.093 288.316 237.641C226.38 264.991 156.476 242.772 129.276 185.018C127.313 180.854 125.604 176.546 124.175 172.115C107.453 120.45 125.494 47.8673 179.261 17.9871C194.079 9.75353 206.033 2.63489 222.803 0.686075C239.492 -1.24844 256.009 1.01961 271.25 6.15609C302.294 16.6149 328.861 38.433 346.998 65.3352C351.299 71.7105 355.143 78.4432 358.372 85.519C370.284 111.583 370.169 144.836 358.477 173.449C354.052 184.279 347.836 193.733 340.368 202.009V202.005Z" fill="#FFDBDB"/>
</g>
<path d="M21.8603 281.558C21.7746 281.658 21.7127 281.787 21.6031 281.858C17.0308 285.051 12.7348 288.51 8.59114 292.06C1.82795 297.844 -4.15891 304.32 -8.86457 311.467C-13.5416 318.562 -16.8328 326.219 -18.4331 334.047C-19.1284 337.445 -19.4332 340.842 -19.3618 344.192C-19.3475 344.778 -19.3428 345.368 -19.3809 345.95C-19.4094 346.412 -19.7476 346.788 -20.1143 346.831C-20.5763 346.884 -20.9002 346.645 -21.0526 346.231C-21.2717 345.631 -21.4765 345.021 -21.6051 344.392C-22.0671 342.133 -22.0766 339.789 -21.8909 337.43C-21.4574 331.836 -19.9048 326.252 -17.6139 320.811C-14.8228 314.173 -10.8316 307.898 -6.03069 302.099C-2.25854 297.539 2.0518 293.337 6.76698 289.515C10.5248 286.471 14.7018 283.931 18.9217 281.472C19.4551 281.158 20.0505 280.915 20.6411 280.724C21.3983 280.486 21.6365 280.681 21.8556 281.553L21.8603 281.558Z" fill="#343434"/>
<path d="M38.7782 274.458C37.8399 274.087 36.9826 274.234 36.173 274.287C31.8245 274.563 27.4522 275.083 23.0752 275.75C20.7129 276.112 18.3505 276.498 15.9834 276.898C15.3071 277.012 14.6165 276.974 13.9497 276.931C13.7735 276.922 13.6115 276.641 13.5734 276.445C13.5496 276.317 13.7306 276.031 13.8782 275.964C14.4688 275.697 15.0832 275.435 15.7024 275.283C21.3701 273.906 27.0665 272.867 32.758 272.186C34.5822 271.966 36.4063 271.881 38.221 271.814C38.983 271.785 39.7689 271.762 40.4928 271.885C42.1979 272.171 42.879 273.353 42.1789 274.759C41.8026 275.526 41.2739 276.283 40.6643 276.941C38.2162 279.585 35.5633 282.001 32.8247 284.336C32.1293 284.927 31.4482 285.527 30.7672 286.118C30.3052 286.518 29.767 286.623 29.3431 286.404C28.9478 286.199 28.7477 285.675 28.9478 285.184C29.0859 284.846 29.305 284.526 29.5098 284.212C30.5195 282.668 31.7388 281.239 33.1438 279.914C34.4964 278.642 35.8729 277.389 37.2732 276.131C37.8114 275.65 38.402 275.192 38.7734 274.449L38.7782 274.458Z" fill="#343434"/>
<path d="M176.876 190.803C175.599 186.681 175.29 182.588 176.957 178.466C178.224 175.341 180.067 172.663 182.724 170.6C185.168 168.703 187.84 167.198 190.769 166.125C193.46 165.139 196.094 163.991 198.732 162.871C200.742 162.018 202.576 160.856 204.248 159.45C204.995 158.821 205.753 158.192 206.477 157.535C207.029 157.034 207.586 156.639 208.344 157.068C208.929 157.401 209.006 158.154 208.463 159.14C206.696 162.347 205.5 165.787 204.314 169.227C203.581 171.348 202.986 173.506 202.647 175.731C202.333 177.809 202.076 179.896 201.661 181.954C200.466 187.882 196.856 191.755 191.317 193.952C190.878 194.124 190.44 194.305 189.94 194.51C191.35 196.096 192.669 197.573 193.989 199.055C196.851 196.42 200.218 195.277 204.024 195.477C207.872 195.682 210.93 197.54 213.321 200.28C213.63 200.337 213.764 200.38 213.902 200.385C219.36 200.604 224.818 200.847 230.157 202.167C230.557 202.267 230.996 202.271 231.41 202.229C235.606 201.785 239.802 202.014 243.998 202.248C248.756 202.514 253.495 202.996 258.191 203.791C263.097 204.625 267.922 205.807 272.694 207.198C278.957 209.018 285.073 211.215 290.869 214.236C297.451 217.662 303.386 221.936 308.253 227.592C310.373 230.05 312.111 232.752 313.378 235.74C314.497 238.374 314.954 241.1 314.535 243.954C314.426 244.712 314.397 245.488 314.407 246.256C314.431 248.705 314.478 251.159 314.535 253.608C314.602 256.428 314.235 259.216 313.668 261.956C311.954 270.227 308.791 277.87 303.514 284.55C302.69 285.594 301.871 286.642 301.042 287.686C295.937 294.066 289.983 299.574 283.615 304.658C281.31 306.497 278.886 308.16 276.28 309.547C270.203 312.791 263.845 315.326 257.162 317.023C253.29 318.004 249.351 318.619 245.394 319.138C244.741 319.224 244.15 319.324 243.836 319.996C243.188 321.363 241.979 322.026 240.64 322.545C237.43 323.793 234.163 324.794 230.705 325.037C229.657 325.109 228.619 325.261 227.576 325.371C223.947 325.742 220.341 325.795 216.688 325.356C212.235 324.823 207.805 324.165 203.39 323.407C200.704 322.945 198.046 322.302 195.375 321.745C192.16 321.077 190.521 318.914 189.793 315.889C189.697 315.493 189.664 315.083 189.597 314.64C188.907 314.478 188.307 314.307 187.692 314.197C185.83 313.859 183.972 313.525 182.105 313.235C177.666 312.539 173.342 311.433 169.155 309.775C161.216 306.626 153.881 302.547 147.513 296.744C142.241 291.936 138.211 286.309 135.349 279.809C133.115 274.74 131.267 269.527 129.848 264.171C128.233 258.063 127.371 251.821 126.557 245.569C126.423 244.535 126.214 243.497 125.899 242.506C124.985 239.613 125.194 236.812 126.619 234.158C127.309 232.871 128.171 231.656 129.095 230.522C130.019 229.388 131.119 228.392 132.134 227.33C132.41 227.039 132.658 226.715 132.972 226.339C132.243 225.838 131.615 225.4 130.981 224.971C129.243 223.794 127.452 222.689 125.771 221.431C123.123 219.453 120.294 217.781 117.307 216.39C114.626 215.141 111.882 214.117 108.825 214.422C107.748 214.531 106.991 214.002 106.558 213.111C106.867 212.125 107.629 212.025 108.291 211.954C109.853 211.782 111.268 211.196 112.692 210.61C116.212 209.157 119.465 207.26 122.418 204.849C123.666 203.834 124.933 202.834 126.219 201.866C127.809 200.661 129.61 199.889 131.562 199.527C137.087 198.493 142.436 198.888 147.494 201.557C147.756 201.695 148.089 201.714 148.499 201.814C148.551 201.028 148.585 200.404 148.632 199.779C149.042 194.457 151.89 190.779 156.515 188.439C162.421 185.447 169.684 189.23 171.399 194.538C171.518 194.915 171.67 195.281 171.803 195.658C173.713 194.591 175.533 193.571 177.443 192.504C177.271 191.979 177.081 191.393 176.895 190.803H176.876ZM130.619 250.005C132.515 259.64 134.858 269.146 138.945 278.123C140.016 280.472 141.35 282.706 142.66 284.936C143.869 286.995 145.413 288.82 147.099 290.511C152.585 296.01 158.71 300.608 165.874 303.724C169.403 305.258 172.885 306.912 176.604 307.941C178.624 308.498 180.672 308.984 182.739 309.351C188.249 310.333 193.76 311.352 199.299 312.139C203.867 312.787 208.487 313.111 213.078 313.616C214.607 313.783 216.117 314.083 217.641 314.288C218.955 314.464 220.279 314.683 221.603 314.712C228.109 314.845 234.63 315.179 241.126 314.959C248.556 314.707 255.877 313.435 262.911 310.886C265.54 309.933 268.131 308.86 270.698 307.755C274.19 306.259 277.447 304.343 280.457 302.028C287.192 296.844 293.384 291.107 298.818 284.531C304.362 277.818 308.186 270.294 310.268 261.865C311.058 258.663 311.473 255.399 311.749 252.116C311.768 251.864 311.735 251.606 311.716 251.077C311.301 251.382 311.068 251.492 310.916 251.673C308.563 254.518 305.657 256.686 302.528 258.592C296.751 262.113 290.531 264.605 284.049 266.482C276.238 268.736 268.317 270.475 260.239 271.428C256.767 271.838 253.266 272.014 249.771 272.119C243.965 272.29 238.154 272.3 232.348 272.405C226.242 272.519 220.179 271.957 214.116 271.352C209.52 270.89 204.929 270.385 200.347 269.779C196.394 269.255 192.45 268.622 188.526 267.935C183.082 266.987 177.652 265.929 172.213 264.948C161.501 263.023 151.076 260.126 141.083 255.757C137.606 254.237 134.272 252.478 131.367 250.001C131.215 249.867 131.01 249.791 130.748 249.639C130.662 249.877 130.61 249.948 130.619 250.005ZM216.017 206.774C216.174 207.865 216.174 208.976 216.236 209.981C218.346 209.824 220.365 209.643 222.384 209.528C225.109 209.371 227.833 209.233 230.562 209.152C234.268 209.037 237.587 210.176 240.564 212.368C241.521 213.073 242.503 213.745 243.469 214.441C244.522 215.198 245.651 215.322 246.856 214.874C247.251 214.727 247.642 214.574 248.032 214.422C250.942 213.316 253.805 213.464 256.577 214.831C257.825 215.451 258.991 216.232 260.182 216.971C260.658 217.266 261.092 217.624 261.535 217.967C262.592 218.777 263.616 219.015 264.731 218.01C265.807 217.038 267.055 217.114 268.25 217.762C269.908 218.662 271.618 219.515 273.137 220.611C275.156 222.074 277.323 222.77 279.791 222.789C281.753 222.803 283.706 222.989 285.668 223.056C288.988 223.17 291.764 224.49 294.089 226.81C296.656 229.379 298.504 232.414 299.761 235.806C300.094 236.707 300.556 237.679 299.632 238.589C301.309 240.066 301.366 241.872 300.89 243.821C300.314 246.16 299.151 248.085 297.099 249.415C296.279 249.943 295.484 250.506 294.651 251.016C294.541 251.082 294.227 250.968 294.127 250.844C294.022 250.715 293.979 250.396 294.065 250.287C294.489 249.734 294.898 249.138 295.432 248.714C298.18 246.527 298.599 243.573 298.17 240.376C298.07 239.609 298.127 239.022 298.799 238.508C296.813 235.296 294.822 232.185 292.179 229.536C290.383 227.739 288.292 226.624 285.735 226.329C283.372 226.057 281.024 225.652 278.671 225.3C276.8 225.014 275.242 224.175 273.985 222.741C272.284 220.807 270.141 219.52 267.774 218.553C266.779 218.148 265.888 218.067 265.059 218.858C263.792 220.068 262.435 219.93 261.001 219.177C259.453 218.362 257.91 217.543 256.319 216.809C253.676 215.594 250.966 215.308 248.17 216.38C246.113 217.166 244.193 216.857 242.464 215.432C241.545 214.674 240.593 213.96 239.645 213.24C237.044 211.263 234.149 210.348 230.838 210.453C227.738 210.548 224.723 211.105 221.689 211.625C220.451 211.839 219.208 212.03 217.965 212.244C217.483 212.325 217.007 212.425 216.531 212.54C215.612 212.754 214.95 213.226 214.431 214.088C213.788 215.156 212.959 216.137 212.078 217.028C210.506 218.615 208.601 219.596 206.315 219.725C205.9 219.749 205.491 219.839 204.938 219.92C204.957 220.278 204.91 220.621 205.005 220.916C206.038 224.113 205.262 226.991 203.486 229.698C203.114 230.27 202.752 230.846 202.304 231.547C202.728 231.642 202.981 231.742 203.238 231.747C203.867 231.761 204.495 231.713 205.129 231.718C205.605 231.728 206.138 231.651 206.405 232.209C206.6 232.619 206.281 233.19 205.543 233.429C204.619 233.719 203.652 234.019 202.695 234.053C200.142 234.143 197.675 233.686 195.389 232.466C194.774 232.137 194.146 231.823 193.536 231.485C191.059 230.098 188.483 229.95 185.835 230.889C185.111 231.141 184.401 231.446 183.706 231.78C180.167 233.471 176.666 233.381 173.218 231.556C171.475 230.636 169.693 229.845 167.755 229.44C166.645 229.207 165.54 229.15 164.426 229.421C162.802 229.817 161.401 230.546 160.477 231.985C160.049 232.652 159.553 233.228 158.829 233.552C157.853 233.991 157.272 234.701 157.096 235.759C157.082 235.854 156.901 235.921 156.801 236.002C155.443 234.834 155.762 233.729 158.148 231.632C157.048 230.875 155.986 230.112 154.881 229.417C154.624 229.255 154.181 229.221 153.89 229.326C153.371 229.507 152.833 229.755 152.438 230.122C151.195 231.265 150.109 232.561 149.342 234.067C149.004 234.739 148.861 235.525 148.718 236.273C148.589 236.959 148.58 237.665 148.518 238.365C148.447 239.156 148.194 239.894 147.651 240.461C146.913 241.233 146.279 242.029 146.06 243.115C145.979 243.516 145.279 243.525 145.013 243.182C144.389 242.367 144.327 241.362 144.76 240.595C145.636 239.051 145.617 237.393 145.827 235.74C145.937 234.858 146.194 233.929 146.632 233.157C148.066 230.646 149.756 228.335 152.628 227.11C152.4 226.277 151.99 225.576 151.457 224.795C151.118 225.038 150.828 225.205 150.59 225.424C147.77 227.978 144.365 228.902 140.683 228.669C139.03 228.559 137.854 228.997 136.816 230.184C135.573 231.608 134.263 232.971 133.048 234.415C132.515 235.049 132.096 235.801 131.71 236.54C130.805 238.284 130.829 240.056 131.767 241.772C132.167 242.506 132.658 243.201 133.186 243.845C134.715 245.708 136.625 247.123 138.688 248.342C141.35 249.915 144.184 251.125 147.051 252.245C154.505 255.151 162.173 257.324 170.003 258.925C175.833 260.116 181.658 261.35 187.506 262.418C192.741 263.375 197.994 264.238 203.267 264.948C209.439 265.782 215.64 266.435 221.837 267.111C228.047 267.793 234.282 267.754 240.516 267.578C243.879 267.483 247.232 267.359 250.595 267.311C257.267 267.216 263.849 266.354 270.384 265.062C276.018 263.947 281.596 262.623 287.049 260.807C291.85 259.211 296.441 257.153 300.785 254.561C302.895 253.298 304.891 251.878 306.624 250.125C307.815 248.919 308.815 247.58 309.534 246.036C310.73 243.473 310.711 240.881 309.701 238.284C308.782 235.916 307.496 233.753 305.934 231.756C303.328 228.421 300.285 225.543 296.937 222.97C292.688 219.711 288.03 217.171 283.144 215.017C274.985 211.42 266.536 208.723 257.796 206.922C251.057 205.535 244.255 204.725 237.402 204.268C236.649 204.215 235.887 204.053 235.263 204.768C235.106 204.949 234.606 204.906 234.277 204.854C231.996 204.478 229.714 204.106 227.39 204.187C227.114 204.196 226.814 204.201 226.557 204.115C222.875 202.881 219.103 203.405 215.226 203.401C215.512 204.63 215.831 205.697 215.988 206.788L216.017 206.774ZM138.564 214.126C136.344 213.85 134.125 213.588 131.986 213.331C128.533 216.013 126.257 217.071 124.571 216.799C124.852 216.08 124.866 216.108 126.885 215.013C127.8 214.517 128.638 213.898 129.714 213.202C129.3 212.983 129.1 212.816 128.881 212.778C125.766 212.239 122.627 212.049 119.474 212.192C117.588 212.273 115.745 212.697 113.707 213.24C114.05 213.535 114.235 213.802 114.488 213.902C118.617 215.513 122.427 217.69 126.004 220.292C128.505 222.107 131.181 223.608 134.058 224.742C136.63 225.757 139.264 226.215 142.06 225.948C145.398 225.629 148.208 224.256 150.614 222.331C150.88 220.492 150.947 218.791 151.404 217.209C151.842 215.708 152.69 214.322 153.452 212.683C152.042 213.069 150.871 213.469 149.671 213.702C148.37 213.955 147.042 214.102 145.722 214.198C144.474 214.288 143.212 214.255 142.098 214.274C141.007 215.98 140.035 217.595 138.959 219.134C138.402 219.93 137.702 220.635 136.982 221.288C136.649 221.593 136.116 221.693 135.663 221.85C135.577 221.879 135.401 221.76 135.33 221.66C135.263 221.564 135.215 221.369 135.268 221.283C135.53 220.873 135.82 220.478 136.12 220.097C137.463 218.381 138.411 216.461 139.25 214.436C138.935 214.298 138.754 214.16 138.559 214.136L138.564 214.126ZM161.263 228.354C163.521 226.991 165.978 226.434 168.512 227.153C170.341 227.673 171.456 226.958 172.475 225.662C175.204 222.188 176.223 217.038 172.627 212.487C171.26 210.753 169.689 209.271 167.417 208.833C166.674 208.69 165.874 208.58 165.14 208.69C163.621 208.914 162.13 209.295 160.625 209.604C159.896 209.757 159.368 210.176 158.982 210.805C158.801 211.101 158.577 211.377 158.401 211.677C157.32 213.555 156.3 215.47 155.172 217.319C152.604 221.517 154.686 225.605 157.367 227.539C157.763 227.825 158.177 228.092 158.601 228.33C159.025 228.568 159.477 228.754 160.054 229.026C160.539 228.759 160.911 228.568 161.268 228.349L161.263 228.354ZM188.34 199.918C188.183 200.346 187.687 200.637 187.473 201.056C187.34 201.323 187.449 201.714 187.444 202.19C186.978 202.219 186.482 202.143 186.078 202.3C185.644 202.472 185.32 202.905 184.901 203.139C184.482 203.372 184.02 203.577 183.553 203.663C182.825 203.801 182.134 203.243 182.096 202.514C182.067 202.033 182.148 201.547 182.186 200.98C181.667 200.561 181.105 200.165 180.61 199.689C180.319 199.408 180.1 199.027 179.933 198.65C179.733 198.202 180.119 197.578 180.619 197.573C181.096 197.564 181.572 197.688 182.162 197.764C182.286 197.592 182.41 197.359 182.591 197.168C183.206 196.539 183.577 196.492 184.22 196.959C184.444 197.121 184.625 197.34 184.834 197.526C184.987 197.664 185.144 197.788 185.406 198.007C185.787 197.778 186.182 197.545 186.568 197.311C186.482 197.111 186.463 196.921 186.382 196.887C183.982 195.839 181.496 195.725 179.014 196.454C176.7 197.14 174.69 198.417 173.066 200.223C171.465 201.995 170.579 204.073 170.551 206.555C170.946 206.831 171.337 207.108 171.737 207.375C173.261 208.399 174.485 209.724 175.614 211.167C177.919 214.112 181 214.965 184.577 214.369C185.501 214.212 186.263 213.702 186.963 213.116C188.545 211.787 189.726 210.148 190.483 208.232C190.869 207.26 191.145 206.245 191.426 205.235C192.069 202.934 191.483 200.956 189.793 199.293C189.411 198.917 188.969 198.603 188.492 198.202C188.449 198.869 188.521 199.436 188.345 199.913L188.34 199.918ZM120.074 211.711C124.004 211.429 127.905 211.83 131.781 212.397C135.544 212.945 139.283 212.787 142.969 212.292C143.274 211.792 142.974 211.549 142.731 211.32C140.655 209.404 138.302 207.923 135.711 206.808C135.277 206.617 134.877 206.336 134.472 206.088C134.444 206.069 134.472 205.964 134.472 205.878C134.558 205.516 134.911 205.535 135.134 205.573C135.882 205.707 136.654 205.831 137.359 206.102C140.631 207.375 143.312 209.18 145.927 211.825C148.113 211.558 150.352 211.21 152.524 210.195C152.362 209.909 152.309 209.705 152.171 209.585C150.628 208.266 149.085 206.95 147.523 205.659C145.932 204.344 144.117 203.51 142.107 203.015C138.716 202.181 135.33 202.133 131.924 202.867C130.543 203.167 129.224 203.648 128.095 204.506C124.232 207.456 119.998 209.733 115.545 211.639C115.359 211.72 115.207 211.873 114.802 212.163C116.76 211.992 118.417 211.825 120.079 211.706L120.074 211.711ZM203.957 217.066C205.796 216.999 207.591 216.809 209.039 215.47C210.677 213.95 211.792 212.125 212.249 209.938C212.378 209.333 212.383 208.68 212.306 208.061C211.787 204.03 208.525 200.69 204.505 200.046C202.833 199.779 201.166 199.775 199.504 200.175C197.937 200.551 196.403 201.004 195.008 201.619C194.808 203.305 194.76 204.93 194.384 206.469C194.012 207.994 193.307 209.442 192.703 211.043C193.36 211.024 193.908 211.01 194.46 210.996C197.465 210.92 199.928 211.977 201.709 214.455C202.319 215.298 202.895 216.17 203.443 216.961C203.686 217.014 203.819 217.071 203.952 217.066H203.957ZM168.06 201.438C168.503 200.061 169.312 198.803 170.013 197.387C168.879 194.481 166.45 192.065 163.668 191.031C161.63 190.274 159.653 190.393 157.782 191.389C154.324 193.228 152.271 196.053 152.019 200.051C151.933 201.419 152.166 202.7 152.919 203.868C153.071 204.101 153.205 204.349 153.347 204.587C154.281 206.121 155.305 207.608 155.796 209.366C159.558 207.57 163.168 205.745 167.303 205.888C167.56 204.292 167.622 202.805 168.06 201.442V201.438ZM194.598 180.248C193.779 180.401 192.936 180.458 192.098 180.472C191.831 180.472 191.56 180.201 191.121 179.967C192.574 178.867 194.184 178.933 195.603 178.443C197.056 177.942 198.523 177.485 199.942 177.023C200.509 174.831 200.966 172.72 201.619 170.666C202.247 168.679 203.076 166.75 203.829 164.777C203.357 164.496 203.181 164.896 202.985 165.101C197.527 170.838 192.222 176.699 187.949 183.403C186.22 186.114 184.606 188.897 182.948 191.655C182.891 191.751 182.953 191.917 182.963 192.122C184.149 192.384 185.354 192.67 186.573 192.904C186.825 192.951 187.14 192.885 187.383 192.775C189.302 191.941 191.221 191.088 193.126 190.216C193.422 190.083 193.66 189.826 194.05 189.526C193.374 189.073 192.731 189.159 192.16 189.016C191.55 188.863 190.921 188.792 190.312 188.635C189.569 188.444 188.826 188.244 188.116 187.963C187.935 187.896 187.754 187.486 187.802 187.291C187.845 187.105 188.197 186.867 188.407 186.872C189.24 186.886 190.078 186.991 190.917 187.053C192.726 187.176 194.536 187.291 196.246 187.41C198.528 185.156 199.804 181.892 199.509 179.186C197.87 179.543 196.246 179.934 194.608 180.244L194.598 180.248ZM238.397 319.6C233.015 319.515 227.628 319.462 222.246 319.338C220.289 319.295 218.336 319.091 216.383 318.943C215.826 318.9 215.264 318.843 214.726 318.695C213.292 318.309 211.901 317.833 211.087 316.532C210.244 316.475 209.477 316.365 208.715 316.384C204.786 316.484 200.885 316.241 197.008 315.593C196.041 315.431 195.065 315.345 194.093 315.222C193.503 315.145 192.993 315.269 192.588 315.836C193.022 317.609 194.155 318.724 195.941 319.143C197.437 319.496 198.951 319.777 200.456 320.077C206.772 321.335 213.13 322.269 219.541 322.879C221.575 323.074 223.594 322.917 225.614 322.783C227.566 322.655 229.519 322.488 231.467 322.321C234.482 322.059 237.373 321.244 240.245 320.353C240.488 320.277 240.807 320.196 240.788 319.71C240.016 319.486 239.192 319.605 238.387 319.591L238.397 319.6ZM187.416 228.354C189.826 227.897 192.136 228.173 194.341 229.259C194.965 229.569 195.594 229.869 196.218 230.184C196.784 230.47 197.275 230.389 197.765 229.988C199.361 228.683 200.604 227.115 201.371 225.185C201.747 224.242 201.795 223.289 201.533 222.312C200.876 219.901 199.666 217.814 197.946 216.013C197.399 215.441 196.732 215.079 195.979 214.879C195.641 214.789 195.294 214.717 194.951 214.693C189.812 214.293 188.492 215.027 185.673 219.73C185.182 220.549 184.92 221.536 184.668 222.474C184.087 224.609 184.334 226.62 185.93 228.578C186.468 228.497 186.949 228.445 187.421 228.354H187.416ZM183.863 172.482C183.763 173.94 184.182 175.36 184.363 176.803C184.468 177.637 184.653 178.457 184.768 179.286C184.806 179.553 184.772 179.853 184.687 180.105C184.625 180.277 184.425 180.463 184.258 180.51C184.091 180.553 183.782 180.491 183.701 180.368C183.401 179.905 183.082 179.429 182.925 178.914C182.596 177.847 182.367 176.746 182.082 175.665C181.996 175.341 181.848 175.036 181.681 174.607C180.548 175.46 179.914 176.541 179.391 177.675C178.105 180.472 177.533 183.388 178.143 186.462C178.457 188.039 178.795 189.611 179.143 191.184C179.214 191.512 179.386 191.817 179.581 192.308C179.919 191.979 180.214 191.803 180.343 191.541C180.938 190.355 181.458 189.13 182.062 187.948C184.411 183.374 187.463 179.281 190.793 175.403C193.569 172.163 196.46 169.023 199.299 165.84C199.39 165.74 199.451 165.606 199.785 165.077C193.989 167.169 188.459 168.718 183.868 172.491L183.863 172.482ZM178.195 216.075C178.171 216.409 178.105 216.733 178.138 217.047C178.557 221.383 177.347 225.181 174.442 228.435C174.309 228.583 174.223 228.778 174.118 228.95C176.452 230.803 179.667 231.118 182.62 229.731C182.258 228.726 181.781 227.725 181.548 226.672C181.31 225.595 181.186 224.461 181.234 223.361C181.281 222.331 181.553 221.293 181.843 220.292C182.153 219.239 182.605 218.224 183.044 217.057C181.296 216.699 179.805 216.399 178.195 216.066V216.075ZM182.477 199.393C183.267 200.056 183.458 201.042 183.372 202.3C183.844 202.128 184.134 202.028 184.415 201.919C184.472 201.895 184.52 201.824 184.553 201.762C185.134 200.771 185.83 199.941 187.073 199.77C187.187 199.756 187.378 199.384 187.33 199.308C187.197 199.103 186.959 198.96 186.754 198.807C186.716 198.779 186.62 198.831 186.554 198.846C186.087 198.96 185.563 199.26 185.173 199.141C184.687 198.988 184.311 198.483 183.796 198.055C183.339 198.522 182.958 198.912 182.482 199.393H182.477Z" fill="#343434"/>
<path d="M211.321 238.565C210.773 237.593 210.187 236.635 209.749 235.611C209.215 234.367 208.973 233.014 209.406 231.713C209.868 230.331 210.506 228.997 211.144 227.682C211.483 226.987 212.002 226.434 212.878 226.31C213.25 226.258 213.635 225.976 213.926 225.705C216.364 223.418 219.289 222.188 222.561 221.76C227.062 221.169 232.001 222.67 234.249 228.53C234.449 229.05 234.625 229.583 234.778 230.127C235.32 232.013 235.154 233.862 234.42 235.673C233.858 237.059 233.015 238.241 231.901 239.242C231.629 239.489 231.42 239.804 231.024 240.276C232.02 240.447 232.763 240.638 233.515 240.695C234.42 240.762 235.335 240.695 236.24 240.719C236.797 240.728 237.359 240.743 237.902 240.852C238.126 240.9 238.44 241.19 238.454 241.395C238.478 241.7 238.369 242.158 238.15 242.31C237.702 242.62 237.164 242.858 236.625 242.963C233.077 243.663 229.724 243.373 226.562 241.324C222.88 238.932 218.994 238.622 215.055 240.814C214.931 240.881 214.807 240.943 214.683 241.009C213.426 241.715 212.078 241.977 210.64 241.839C209.039 241.681 207.434 241.557 205.834 241.395C205.691 241.381 205.558 241.219 205.172 240.957C207.582 240.333 209.882 240.914 212.211 239.909C211.849 239.37 211.559 238.989 211.33 238.579L211.321 238.565ZM227.538 238.365C229.715 237.14 231.42 235.373 231.429 232.695C231.434 230.131 230.177 228.054 227.933 226.696C227.381 227.101 227.7 227.535 227.7 227.911C227.695 229.426 227.633 230.879 225.866 231.518C225.585 231.623 225.433 232.042 225.185 232.285C224.099 233.357 222.875 233.186 222.08 231.842C221.87 231.489 221.737 231.094 221.556 230.684C220.884 230.641 220.26 230.622 219.646 230.551C219.127 230.489 218.713 230.236 218.57 229.698C218.432 229.178 218.608 228.73 218.994 228.373C219.146 228.235 219.332 228.125 219.513 228.025C220.156 227.668 220.089 227.153 219.851 226.596C219.708 226.567 219.56 226.486 219.446 226.515C216.846 227.163 214.888 228.892 212.859 230.484C212.564 230.717 212.411 231.194 212.307 231.585C211.849 233.271 211.916 234.925 212.835 236.454C213.259 237.159 213.788 237.807 214.369 238.617C218.832 236.206 223.104 236.683 227.543 238.355L227.538 238.365ZM220.456 229.274C220.675 229.312 220.88 229.393 221.075 229.374C221.946 229.317 222.528 229.664 222.909 230.465C223.104 230.875 223.447 231.218 223.742 231.613C224.564 230.692 225.336 230.093 226.057 229.817C226.347 229.002 226.585 228.149 226.219 227.153C225.414 227.43 224.628 227.94 223.804 227.487C223.085 227.091 222.432 226.582 221.556 225.991C221.315 227.5 220.946 228.594 220.451 229.274H220.456ZM223.89 225.853C224.156 226.458 224.509 226.296 224.899 225.919C224.599 225.9 224.299 225.881 223.89 225.853Z" fill="#343434"/>
<path d="M256.572 263.209C257.181 263.695 257.896 263.547 258.572 263.457C265.507 262.504 272.399 261.336 279.181 259.578C282.158 258.806 285.163 258.115 288.125 257.286C292.569 256.033 296.522 253.784 300.109 250.925C302.366 249.124 304.162 246.865 305.624 244.364C306.729 242.467 307 240.461 306.591 238.289C306.053 235.458 304.795 232.995 303.038 230.77C300.499 227.558 297.441 224.904 294.088 222.57C288.968 219.001 283.296 216.704 277.304 215.089C271.36 213.483 265.421 211.844 259.377 210.648C251.404 209.066 243.393 207.732 235.272 207.236C233.81 207.146 232.343 207.236 230.876 207.208C230.248 207.198 229.624 207.098 229 207.046C225.861 206.755 222.727 206.455 219.589 206.183C218.831 206.117 218.031 205.978 217.345 206.45C217.16 206.579 217.026 206.889 217.007 207.127C216.998 207.27 217.231 207.532 217.393 207.575C217.864 207.699 218.355 207.784 218.841 207.813C223.523 208.104 228.209 208.389 232.891 208.656C233.301 208.68 233.82 208.723 234.11 208.513C234.968 207.894 235.863 208.123 236.744 208.242C243.684 209.176 250.599 210.248 257.481 211.534C264.435 212.835 271.303 214.465 278.109 216.394C283.686 217.976 288.854 220.359 293.55 223.789C296.046 225.619 298.385 227.62 300.471 229.893C302.628 232.242 304.309 234.872 304.971 238.074C305.405 240.171 305.143 242.11 303.986 243.916C301.871 247.208 299.17 249.891 295.86 251.997C292.017 254.441 287.806 255.838 283.401 256.81C276.09 258.42 268.736 259.807 261.377 261.198C259.939 261.47 258.52 261.87 257.11 262.256C256.686 262.37 256.377 262.68 256.581 263.228L256.572 263.209Z" fill="#343434"/>
<path d="M236.139 263.79C235.696 263.719 235.263 263.599 234.82 263.58C229.285 263.371 223.794 262.747 218.302 262.065C216.497 261.841 214.706 261.508 212.906 261.227C210.072 260.783 207.238 260.345 204.404 259.897C201.013 259.364 197.622 258.858 194.245 258.291C191.069 257.758 187.901 257.181 184.739 256.595C182.334 256.147 179.928 255.69 177.533 255.17C173.16 254.218 168.788 253.255 164.43 252.231C161.496 251.54 158.677 250.501 155.957 249.181C154.133 248.295 152.233 247.561 150.427 246.646C148.122 245.484 145.831 244.269 143.612 242.949C142.545 242.315 141.592 241.443 140.702 240.566C139.744 239.623 139.101 238.451 138.873 237.088C138.801 236.673 138.735 236.249 138.563 235.873C138.468 235.663 138.154 235.42 137.958 235.435C137.749 235.454 137.449 235.725 137.387 235.944C137.006 237.269 137.092 238.57 137.763 239.809C138.854 241.819 140.34 243.468 142.259 244.707C143.259 245.35 144.274 245.979 145.322 246.537C151.132 249.624 156.933 252.745 163.349 254.422C166.869 255.342 170.407 256.185 173.97 256.919C178.695 257.891 183.434 258.868 188.206 259.568C193.95 260.412 199.742 260.964 205.509 261.655C209.053 262.079 212.596 262.513 216.135 262.975C221.555 263.685 226.999 264.062 232.457 264.29C233.696 264.343 234.934 264.305 236.144 263.79H236.139Z" fill="#343434"/>
<path d="M234.735 257.772C237.864 257.758 240.831 257.472 243.565 256.009C243.813 255.876 244.074 255.78 244.317 255.647C245.208 255.137 246.07 255.285 246.889 255.78C247.427 256.104 247.918 256.495 248.437 256.848C248.723 257.043 249.004 257.262 249.314 257.405C249.928 257.686 250.69 257.257 250.685 256.6C250.685 256.128 250.628 255.599 250.404 255.194C249.361 253.298 247.713 252.188 245.589 251.902C244.937 251.811 244.222 252.078 243.555 252.25C243.16 252.354 242.784 252.578 242.422 252.779C240.817 253.665 239.102 254.208 237.302 254.537C236.278 254.727 235.263 255.004 234.249 255.251C233.911 255.332 233.577 255.437 233.253 255.566C232.772 255.757 232.406 256.066 232.434 256.643C232.453 257.095 232.834 257.496 233.387 257.601C233.863 257.691 234.354 257.72 234.735 257.763V257.772Z" fill="#343434"/>
<path d="M207.939 251.478C208.291 251.13 208.587 250.949 208.691 250.692C208.739 250.577 208.444 250.229 208.239 250.124C207.925 249.967 207.486 250.286 207.529 250.63C207.558 250.863 207.739 251.077 207.944 251.478H207.939Z" fill="#343434"/>
<path d="M166.35 217.476C166.312 218.319 165.55 218.858 164.721 218.696C164.264 218.605 163.835 218.338 163.412 218.105C163.059 217.91 162.74 217.652 162.473 217.471C161.63 217.628 161.464 218.329 161.035 218.758C160.601 219.191 160.139 219.63 159.62 219.949C159.087 220.273 158.52 220.063 158.077 219.668C157.691 219.325 157.529 218.824 157.677 218.329C157.834 217.81 158.106 217.324 158.349 216.776C158.082 216.528 157.83 216.299 157.587 216.07C157.125 215.642 157.006 215.108 157.268 214.55C157.496 214.06 157.963 213.898 158.482 213.883C158.934 213.864 159.392 213.85 159.901 213.831C159.863 213.416 159.839 213.145 159.811 212.868C159.782 212.592 159.716 212.316 159.73 212.039C159.768 211.372 160.392 210.886 161.049 211.063C161.511 211.186 161.935 211.444 162.373 211.649C162.73 211.815 163.088 211.987 163.431 212.149C163.883 211.653 164.216 211.196 164.636 210.848C165.402 210.214 166.569 210.653 166.75 211.63C166.826 212.03 166.836 212.478 166.741 212.868C166.56 213.607 166.284 214.322 166.098 214.889C166.198 215.842 166.384 216.666 166.35 217.481V217.476ZM164.912 213.259C163.747 213.472 162.581 213.28 161.416 212.683C161.349 212.854 161.244 213.021 161.23 213.192C161.148 214.393 160.503 215.135 159.296 215.418C159.611 216.023 159.925 216.628 160.235 217.228C160.287 217.219 160.363 217.223 160.397 217.19C161.73 215.684 162.73 215.542 164.25 217.071C164.378 217.2 164.617 217.219 164.902 217.328C165.264 216.318 164.44 215.627 164.326 214.731C164.497 214.298 164.693 213.817 164.912 213.259Z" fill="#343434"/>
<path d="M206.196 208.952C205.52 208.494 205.41 207.918 206.058 207.441C206.72 206.955 206.825 206.403 206.853 205.664C206.882 204.968 207.658 204.649 208.272 205.011C208.506 205.149 208.777 205.326 208.877 205.554C209.163 206.217 209.673 206.45 210.33 206.531C210.525 206.555 210.711 206.698 210.887 206.803C211.93 207.432 212.078 208.79 211.03 209.352C210.097 209.857 209.506 210.476 209.225 211.463C209.173 211.644 208.977 211.796 208.815 211.93C208.249 212.397 207.272 212.054 207.187 211.325C207.12 210.781 207.177 210.219 207.182 209.443C206.796 209.252 206.472 209.133 206.191 208.947L206.196 208.952ZM208.663 207.627C208.011 207.26 208.687 206.369 207.968 205.988C207.701 206.631 207.429 207.275 207.139 207.97C207.529 208.304 207.934 208.652 208.396 209.047C209.02 208.771 209.673 208.485 210.416 208.156C209.949 206.927 209.258 207.518 208.663 207.627Z" fill="#343434"/>
<path d="M156.529 198.579C156.657 199.293 156.686 199.856 156.872 200.366C157.105 201.009 157.991 201.128 158.415 200.594C158.677 200.27 158.844 199.875 159.077 199.532C159.501 198.907 159.977 198.726 160.682 198.936C161.015 199.036 161.311 199.246 161.635 199.351C162.544 199.641 163.13 199.165 163.054 198.174C163.016 197.697 162.863 197.23 162.759 196.725C163.116 196.292 163.497 195.887 163.811 195.434C164.226 194.843 163.997 194.2 163.325 193.9C162.478 193.518 161.696 193.733 160.934 194.143C160.52 194.367 160.558 194.838 161.015 195.096C161.182 195.191 161.377 195.229 161.558 195.291C161.32 196.152 161.285 197.029 161.454 197.921C160.268 197.726 159.086 197.559 158.105 198.779C157.815 198.212 157.605 197.797 157.343 197.297C158.305 196.863 159.144 196.377 158.872 195.167C159.558 195.281 159.182 195.896 159.558 196.201C159.687 196.13 159.953 196.072 159.982 195.953C160.077 195.572 160.201 195.134 160.101 194.776C159.92 194.147 159.401 193.761 158.801 193.495C158.02 193.142 157.419 193.457 157.315 194.324C157.267 194.724 157.3 195.138 157.296 195.596C156.757 195.772 156.291 195.891 155.852 196.082C155.3 196.32 154.952 196.759 154.957 197.383C154.957 197.969 155.381 198.212 155.881 198.36C156.081 198.417 156.272 198.488 156.524 198.574L156.529 198.579Z" fill="#343434"/>
<path d="M159.62 196.706C159.553 196.777 159.486 196.854 159.42 196.925C159.52 196.977 159.61 197.039 159.715 197.068C159.748 197.077 159.81 196.987 159.857 196.944C159.776 196.863 159.7 196.787 159.62 196.706Z" fill="#343434"/>
<path d="M193.541 227.735C192.445 228.311 191.412 227.773 191.192 226.577C191.116 226.172 191.131 225.752 191.107 225.347C190.935 225.176 190.802 225.019 190.645 224.881C190.44 224.695 190.192 224.547 190.011 224.342C189.535 223.799 189.668 223.046 190.321 222.784C190.892 222.555 191.512 222.431 192.188 222.241C192.293 221.964 192.383 221.636 192.531 221.331C192.669 221.04 192.855 220.778 192.988 220.554C194.279 220.687 194.298 221.826 194.888 222.479C195.403 222.117 195.893 221.731 196.427 221.412C196.846 221.159 197.579 221.426 197.608 221.879C197.708 223.327 197.746 224.785 197.756 226.239C197.756 226.667 197.27 226.972 196.841 226.882C196.37 226.782 195.917 226.615 195.346 226.443C194.66 226.939 194.141 227.42 193.536 227.735H193.541ZM193.431 225.362C193.374 225.243 193.226 225.114 193.245 225.009C193.283 224.761 193.336 224.423 193.502 224.314C193.679 224.199 194.069 224.204 194.241 224.328C195.288 225.081 195.279 225.1 196.474 225.076C196.408 224.485 196.341 223.904 196.274 223.299C196.036 223.227 195.85 223.118 195.665 223.118C194.741 223.118 193.845 223.48 192.888 223.275C192.55 223.203 192.135 223.503 191.678 223.661C191.94 224.237 192.193 224.704 192.364 225.205C192.517 225.638 192.578 226.1 192.683 226.572C193.42 226.277 193.669 225.873 193.431 225.362Z" fill="#343434"/>
<path d="M184.058 199.803C184.077 199.86 184.096 199.922 184.11 199.979C184.186 199.922 184.257 199.87 184.333 199.813C184.291 199.77 184.248 199.698 184.2 199.694C184.157 199.694 184.105 199.76 184.058 199.803Z" fill="#343434"/>
<path d="M223.956 229.374C223.871 229.202 223.814 229.097 223.756 228.988C223.623 229.064 223.466 229.121 223.361 229.231C223.328 229.264 223.452 229.531 223.48 229.526C223.637 229.502 223.79 229.431 223.956 229.374Z" fill="#343434"/>
<path d="M325.77 113.16C325.118 112.526 324.332 112.312 323.441 112.512C322.422 112.745 321.46 113.226 320.498 113.979C319.122 115.061 317.993 116.143 317.055 117.281C315.426 119.259 314.344 121.212 313.74 123.256C312.892 126.12 312.754 128.95 313.32 131.666C313.335 131.738 313.349 131.804 313.359 131.876C313.287 131.809 313.216 131.743 313.144 131.676C311.611 130.237 309.901 129.26 308.062 128.769C305.481 128.078 302.79 128.174 299.837 129.05C298.58 129.427 297.513 130.094 296.665 131.037L296.432 131.295C296.112 131.647 295.784 132.014 295.484 132.395C295.236 132.71 294.998 133.072 294.784 133.472C294.488 134.02 294.231 134.592 293.979 135.145C293.626 135.921 293.264 136.722 292.783 137.484C290.969 141.639 291.045 145.384 293.026 148.929C293.031 148.939 293.036 148.948 293.04 148.958C293.026 148.958 293.012 148.948 292.998 148.939C291.04 148.124 288.892 147.705 286.034 147.581C283.943 147.49 281.772 147.729 278.985 148.357C276.128 149.001 273.556 150.192 271.341 151.902C268.893 153.785 266.802 156.024 265.092 158.568C264.716 159.131 264.402 159.741 264.097 160.327C263.992 160.527 263.892 160.727 263.782 160.927C263.668 161.141 263.611 161.375 263.563 161.575C263.487 161.923 263.654 162.295 263.94 162.442C264.216 162.585 264.521 162.552 264.773 162.357C264.973 162.199 265.135 162.042 265.259 161.88L265.573 161.47C265.954 160.975 266.345 160.46 266.693 159.922C267.736 158.306 269.041 156.763 270.803 155.071C270.85 155.023 270.908 154.99 270.965 154.947L271.084 154.971C271.231 155.023 271.379 155.071 271.522 155.133C271.932 155.314 272.341 155.5 272.751 155.686C273.456 156.005 274.156 156.324 274.866 156.624C275.756 157.001 276.675 157.349 277.566 157.682L277.947 157.825C278.114 157.887 278.376 157.959 278.647 157.94C278.852 157.925 279.1 157.744 279.171 157.554C279.262 157.32 279.123 157.039 279.081 156.958C279 156.81 278.847 156.724 278.714 156.653L278.371 156.462C278.042 156.281 277.709 156.091 277.356 155.943C276.252 155.467 275.137 155.004 274.027 154.542L272.413 153.87C272.379 153.856 272.346 153.842 272.313 153.823C273.627 152.498 277.247 150.602 279.085 150.297C279.128 150.321 279.176 150.344 279.214 150.378L280.019 150.973C280.924 151.64 281.829 152.308 282.724 152.979C284.22 154.099 285.853 155.009 287.401 155.824C287.625 155.943 287.897 156.015 288.168 156.029C288.401 156.043 288.611 155.814 288.701 155.667C288.801 155.486 288.74 155.2 288.616 155.066C288.449 154.89 288.249 154.719 287.978 154.518C287.468 154.147 286.958 153.775 286.449 153.403L285.382 152.627C284.034 151.64 282.686 150.654 281.338 149.663C281.362 149.658 281.381 149.649 281.405 149.644C284.882 148.915 288.249 149.067 291.421 150.101C293.326 150.721 295.026 151.659 296.47 152.889C297.074 153.403 297.737 153.856 298.375 154.299C298.613 154.461 298.851 154.623 299.084 154.79C299.275 154.923 299.499 155.014 299.694 155.09C299.989 155.205 300.289 155.314 300.589 155.424L301.037 155.586C302.68 156.2 304.257 156.439 305.862 156.324C305.943 156.319 306.024 156.324 306.114 156.324L306.133 156.462C306.024 156.462 305.924 156.462 305.824 156.462C303.638 156.434 301.561 156.982 299.651 158.092C298.38 158.831 297.517 159.607 296.941 160.532C296.741 160.846 296.584 161.18 296.422 161.532C296.36 161.661 296.298 161.794 296.231 161.928C296.151 161.947 296.055 161.966 295.955 161.99C295.336 162.142 294.812 162.566 294.526 163.143C294.245 163.715 294.231 164.377 294.488 164.958C294.574 165.153 294.812 165.277 295.003 165.306C295.212 165.339 295.431 165.144 295.508 164.991C295.569 164.868 295.608 164.734 295.646 164.596C295.669 164.525 295.689 164.448 295.717 164.382L295.765 164.248C295.827 164.072 295.884 163.91 295.97 163.772C295.984 163.753 296.036 163.724 296.093 163.705C296.112 163.729 296.127 163.753 296.131 163.772C296.17 163.9 296.198 164.034 296.227 164.167C296.255 164.296 296.279 164.424 296.317 164.548C296.613 165.582 297.203 166.064 298.294 166.173C298.375 166.183 298.46 166.183 298.546 166.183C298.713 166.183 298.851 166.183 298.984 166.249L298.961 166.921C298.961 166.983 298.984 167.045 299.027 167.088C299.208 167.269 299.38 167.302 299.489 167.298C299.627 167.298 299.761 167.226 299.861 167.107C300.037 166.893 300.175 166.659 300.251 166.43C300.399 166.006 300.385 165.639 300.223 165.339C300.056 165.039 299.746 164.839 299.303 164.739C299.103 164.696 298.899 164.667 298.699 164.644C298.599 164.634 298.503 164.62 298.408 164.606C298.175 164.572 298.041 164.448 297.979 164.21C297.951 164.11 297.927 164.005 297.918 163.9C297.879 163.467 297.789 162.914 297.46 162.404C297.884 161.704 298.47 161.227 298.989 160.846C300.242 159.941 301.68 159.269 303.257 158.854C304.285 158.583 305.324 158.521 306.352 158.673C306.481 158.692 306.61 158.73 306.719 158.764L306.772 158.778C306.848 158.921 306.914 159.059 306.986 159.197C307.172 159.569 307.353 159.917 307.562 160.255C307.881 160.76 308.224 161.227 308.586 161.647C310.272 163.595 312.144 164.91 314.311 165.678C314.721 165.821 314.906 166.011 314.973 166.349C314.997 166.469 315.03 166.588 315.064 166.707C315.092 166.821 315.126 166.931 315.149 167.04C315.421 168.413 315.569 169.647 315.592 170.809C315.611 171.615 315.54 172.439 315.368 173.33C315.083 174.817 314.378 176.108 313.73 177.175C311.653 180.577 307.076 182.869 302.337 180.658C300.589 179.843 299.061 178.69 297.67 177.137C297.608 177.066 297.546 176.994 297.484 176.923C297.389 176.808 297.294 176.699 297.194 176.594C296.946 176.337 296.684 176.198 296.451 176.198C296.312 176.198 296.189 176.251 296.098 176.341C295.774 176.68 295.912 177.075 296.008 177.332C296.198 177.876 296.517 178.409 297.008 179C298.113 180.339 299.423 181.425 300.894 182.235C302.899 183.336 304.819 183.789 306.762 183.612C309.305 183.388 311.52 182.497 313.359 180.968C313.744 180.649 314.111 180.301 314.459 179.929C315.059 179.286 315.564 178.543 315.973 177.899C317.569 175.407 318.279 172.644 318.083 169.69C318.04 169.037 317.955 168.379 317.869 167.741C317.831 167.441 317.788 167.14 317.755 166.84L317.712 166.459C317.878 166.459 318.036 166.459 318.188 166.473C319.436 166.55 320.741 166.483 322.06 166.283C324.332 165.94 326.371 164.972 328.076 163.462C330.2 161.575 331.7 159.622 332.662 157.482C333.839 154.871 334.315 152.169 334.072 149.453C333.929 147.871 333.434 146.461 332.6 145.26C332.072 144.498 331.472 143.74 330.819 142.997C329.943 142.006 328.852 141.22 327.58 140.658C327.385 140.572 327.199 140.476 326.994 140.372L326.928 140.338L327.109 140.114C327.209 139.995 327.309 139.876 327.409 139.757C327.633 139.49 327.861 139.214 328.066 138.923C329.219 137.294 330.033 135.307 330.629 132.686C331.119 130.532 331.243 128.245 331.01 125.691C330.738 122.713 329.876 119.816 328.38 116.843C327.595 115.28 326.766 114.108 325.77 113.15V113.16ZM325.837 121.146C325.494 121.46 325.151 121.775 324.813 122.094C324.604 122.294 324.418 122.508 324.261 122.732C324.146 122.899 324.194 123.194 324.318 123.333C324.446 123.476 324.708 123.518 324.87 123.466C325.085 123.399 325.275 123.275 325.399 123.185C326.499 122.413 327.552 121.627 328.38 120.536C329.219 122.251 330.009 126.997 329.785 129.103L329.543 129.241C329.271 129.393 328.985 129.56 328.695 129.713C327.952 130.103 327.209 130.494 326.466 130.885C325.68 131.295 324.894 131.709 324.108 132.119C323.856 132.252 323.594 132.414 323.327 132.61C323.099 132.772 323.041 133.043 323.16 133.296C323.284 133.548 323.518 133.672 323.775 133.615C323.999 133.563 324.256 133.501 324.499 133.391C324.804 133.253 325.108 133.115 325.413 132.981C326.828 132.348 328.285 131.7 329.657 130.813C329.566 133.572 327.852 137.923 325.566 139.843L321.679 139.219C321.779 137.908 321.946 136.479 322.217 134.625C322.594 132.033 322.922 129.393 323.241 126.844C323.751 122.742 324.275 118.506 325.023 114.36C325.99 115.275 327.128 117.196 327.847 119.154C327.737 119.392 327.528 119.587 327.309 119.797L327.237 119.869C326.775 120.307 326.309 120.736 325.842 121.165L325.837 121.146ZM315.683 139.762C315.707 139.824 315.721 139.886 315.735 139.971L315.645 140.005C315.454 140.071 315.283 140.133 315.116 140.205L314.625 140.4C314.187 140.577 313.73 140.758 313.292 140.972C311.449 141.877 310.101 143.34 309.286 145.327L309.229 145.465C309.124 145.727 309.015 145.989 308.929 146.261C308.539 147.481 308.081 148.458 307.491 149.334C306.667 150.559 306.2 151.998 306.052 153.727C306.038 153.866 306.019 153.999 306 154.132L305.991 154.204C305.805 154.29 305.609 154.294 305.381 154.294H305.214C303.957 154.337 302.671 154.09 301.39 153.57C299.099 152.636 297.113 151.135 295.493 149.12C293.788 146.995 293.136 144.527 293.502 141.577C293.745 139.614 294.398 137.761 295.503 135.902C295.56 135.802 295.608 135.697 295.655 135.588C295.698 135.483 295.741 135.383 295.808 135.288L295.955 135.068C296.212 134.682 296.479 134.287 296.779 133.939C297.232 133.425 297.732 132.934 298.213 132.457L298.384 132.291C298.47 132.205 298.561 132.124 298.656 132.047C299.103 131.676 299.623 131.395 300.199 131.223C303.252 130.308 305.771 130.251 308.129 131.042C309.834 131.614 311.215 132.519 312.23 133.729C313.621 135.392 314.749 137.36 315.678 139.757L315.683 139.762ZM308.124 155.1C308.105 154.809 308.158 154.566 308.296 154.29C308.481 153.923 308.558 153.518 308.639 153.127C308.662 153.013 308.686 152.898 308.71 152.789C308.767 152.536 308.815 152.284 308.862 152.031C308.915 151.76 308.967 151.488 309.029 151.216C309.286 150.125 309.682 149.225 310.239 148.462C310.41 148.229 310.563 147.986 310.72 147.743L310.925 147.424C310.972 147.347 310.972 147.247 310.925 147.171L310.649 146.761L310.758 146.575C310.93 146.285 311.096 145.989 311.287 145.708C311.982 144.66 312.92 143.864 314.078 143.34C316.007 142.468 318.012 142.006 320.031 141.958C321.365 141.93 322.717 142.063 324.051 142.354C326.747 142.945 328.852 144.446 330.481 146.947C330.99 147.729 331.305 148.653 331.452 149.782C331.719 151.845 331.433 153.956 330.6 156.053C329.647 158.454 327.976 160.555 325.451 162.495C324.78 163.009 324.008 163.4 323.146 163.653C321.012 164.282 318.726 164.415 316.359 164.043C314.921 163.815 313.568 163.19 311.968 162.013C311.568 161.718 311.187 161.375 310.834 161.051C309.163 159.507 308.281 157.563 308.134 155.114L308.124 155.1ZM319.231 136.231C319.341 136.107 319.36 135.869 319.274 135.726C319.141 135.512 319.012 135.335 318.874 135.192C318.602 134.906 318.336 134.616 318.069 134.32C317.359 133.544 316.626 132.743 315.783 132.062C315.602 131.919 315.502 131.757 315.454 131.528C314.878 128.822 314.973 126.192 315.73 123.709L315.745 123.738C316.693 125.41 317.669 127.14 318.812 128.793C319.007 129.074 319.198 129.308 319.393 129.508C319.541 129.66 319.836 129.646 319.984 129.57C320.136 129.494 320.317 129.246 320.26 129.036C320.188 128.765 320.084 128.407 319.922 128.074C319.269 126.739 318.474 125.382 317.421 123.814C317.297 123.633 317.178 123.447 317.059 123.261C316.902 123.018 316.75 122.78 316.588 122.542C316.397 122.265 316.392 122.032 316.564 121.708C318.207 118.663 320.284 116.438 322.908 114.908C323.103 114.794 323.303 114.68 323.527 114.556L323.565 114.532C323.565 114.646 323.561 114.751 323.541 114.851L323.384 115.771C323.103 117.429 322.827 119.087 322.527 120.745C322.094 123.133 321.77 125.701 321.498 128.817L321.246 131.714C321.103 133.324 320.965 134.935 320.827 136.55C320.789 137.022 320.765 137.494 320.741 137.97C320.727 138.27 320.712 138.571 320.693 138.871C320.684 138.976 320.665 139.085 320.641 139.195L317.769 139.433C317.416 138.542 316.392 135.226 316.054 133.896C316.373 134.206 316.688 134.516 317.002 134.83C317.34 135.168 317.678 135.502 318.021 135.836C318.226 136.031 318.464 136.179 318.702 136.331C318.864 136.431 319.117 136.369 319.226 136.236L319.231 136.231Z" fill="#343434"/>
<path d="M287.906 169.204C288.106 169.146 288.339 169.075 288.558 168.894C288.649 168.818 288.739 168.718 288.825 168.594C288.868 168.532 288.873 168.451 288.849 168.384C288.82 168.313 288.759 168.265 288.687 168.246C288.077 168.112 287.511 168.227 286.968 168.336C286.715 168.389 286.472 168.436 286.229 168.46C286.291 168.384 286.349 168.317 286.41 168.251L287.234 167.369C288.277 166.249 289.321 165.13 290.378 164.024C291.04 163.329 291.716 162.642 292.393 161.956L293.369 160.965C293.478 160.856 293.583 160.741 293.683 160.622C293.864 160.413 293.888 160.146 293.75 159.874C293.602 159.579 293.264 159.441 292.936 159.55C292.75 159.612 292.507 159.703 292.312 159.855C292.012 160.089 291.692 160.346 291.416 160.646L291.292 160.779C289.787 162.419 288.235 164.11 286.734 165.797C286.12 166.492 285.515 167.217 284.929 167.922C284.682 168.222 284.434 168.522 284.181 168.822C283.043 169.037 281.814 169.156 280.419 169.18C277.842 169.223 275.732 168.989 273.765 168.446L273.698 168.432L275.104 167.302C276.256 166.373 277.413 165.444 278.58 164.52C279.771 163.572 280.971 162.638 282.181 161.694L283.8 160.432C283.867 160.374 283.9 160.298 283.886 160.212L283.8 159.707C283.881 159.688 283.962 159.669 284.043 159.655C287.253 159.078 289.725 158.721 292.059 158.492C292.959 158.402 293.864 158.259 294.741 158.116C295.06 158.063 295.374 158.016 295.688 157.963C295.965 157.921 296.222 157.84 296.417 157.773C296.731 157.668 296.917 157.42 296.932 157.101C296.941 156.758 296.67 156.463 296.279 156.396C296.003 156.353 295.727 156.339 295.46 156.324H295.365C292.793 156.196 290.287 156.548 288.387 156.863C286.177 157.234 283.61 157.668 281.086 158.164C277.604 158.85 274.737 159.569 272.06 160.436C271.231 160.703 270.403 161.013 269.602 161.313L268.779 161.623C268.545 161.709 268.297 161.804 268.083 161.956C267.907 162.075 267.826 162.328 267.826 162.509C267.826 162.743 268.14 162.919 268.307 162.924C268.64 162.938 268.912 162.919 269.16 162.866C269.483 162.8 269.807 162.719 270.131 162.633C270.412 162.561 270.698 162.495 270.984 162.433C274.494 161.661 278.009 160.894 281.519 160.131C281.262 160.322 281.005 160.508 280.747 160.698C280.1 161.17 279.428 161.656 278.795 162.176C277.333 163.391 275.87 164.634 274.413 165.873C273.737 166.45 273.06 167.021 272.384 167.598C272.279 167.679 272.179 167.755 272.065 167.836L271.979 167.893L271.941 167.879C271.855 167.85 271.77 167.827 271.698 167.784L271.031 167.441C270.369 167.098 269.683 166.745 269.026 166.369C268.74 166.207 268.464 166.006 268.193 165.816C267.959 165.649 267.721 165.478 267.478 165.33C267.012 165.044 266.621 164.849 266.24 164.72C265.954 164.625 265.673 164.672 265.449 164.891C265.235 165.106 265.164 165.43 265.268 165.735C265.34 165.94 265.464 166.121 265.564 166.259C265.845 166.64 266.216 166.964 266.697 167.255L266.773 167.302C267.207 167.56 267.645 167.822 268.093 168.07C269.741 168.98 271.246 169.585 272.694 169.923C275.708 170.624 278.866 170.814 282.081 170.485C283.848 170.304 285.715 169.899 287.787 169.242L287.896 169.208L287.906 169.204Z" fill="#343434"/>
<path d="M294.293 165.916C293.802 166.145 293.521 166.602 293.507 167.193C293.502 167.341 293.621 167.479 293.74 167.536C293.85 167.584 294.016 167.593 294.131 167.507C294.197 167.455 294.259 167.398 294.321 167.341C294.355 167.307 294.383 167.279 294.426 167.24C294.764 166.955 295.393 166.902 295.679 167.136C296.179 167.541 296.479 168.017 296.574 168.551C296.688 169.184 296.522 169.828 296.112 170.361C295.688 170.909 295.05 171.262 294.421 171.319C294.278 171.124 294.245 170.862 294.212 170.581C294.178 170.304 294.159 170.028 294.136 169.752C294.121 169.556 294.107 169.361 294.088 169.17C294.055 168.827 294.016 168.455 293.95 168.093C293.888 167.75 293.654 167.564 293.297 167.579C293.212 167.579 293.135 167.631 293.102 167.712C293.083 167.755 293.059 167.798 293.035 167.846C292.969 167.969 292.892 168.112 292.859 168.274C292.64 169.375 292.583 170.385 292.697 171.357C292.721 171.557 292.764 171.753 292.826 171.929C293.145 172.815 293.95 173.206 294.826 172.896C295.14 172.787 295.436 172.625 295.669 172.434C295.76 172.363 295.855 172.282 295.955 172.201C296.279 171.929 296.626 171.624 296.95 171.281C298.089 170.071 298.141 168.189 297.079 167.002C296.703 166.588 296.245 166.245 295.888 165.992C295.436 165.668 294.869 165.639 294.297 165.911L294.293 165.916Z" fill="#343434"/>
<path d="M299.751 171.781C299.794 171.881 299.837 171.986 299.875 172.086C299.904 172.162 299.947 172.239 299.994 172.31C300.013 172.344 300.032 172.372 300.047 172.401C299.923 172.358 299.799 172.272 299.651 172.134C299.547 172.034 299.447 171.934 299.351 171.829C299.247 171.719 299.137 171.61 299.023 171.505C298.847 171.338 298.656 171.167 298.437 171.033C298.137 170.847 297.856 170.852 297.589 171.071C297.365 171.271 297.337 171.595 297.513 171.924C297.937 172.696 298.532 173.292 299.285 173.692C299.732 173.93 300.18 174.026 300.618 173.983C300.88 173.954 301.109 173.864 301.285 173.721C301.352 173.668 301.409 173.606 301.457 173.54C301.633 173.297 301.685 172.982 301.614 172.653C301.542 172.339 301.399 172.048 301.257 171.777C301.142 171.557 301.014 171.348 300.866 171.114L300.785 170.986C300.785 170.986 300.795 170.981 300.799 170.976C300.956 170.905 301.09 170.843 301.218 170.752C301.528 170.528 301.68 170.066 301.523 169.685C301.452 169.518 301.28 169.404 301.137 169.346C300.985 169.294 300.814 169.375 300.78 169.394C300.685 169.447 300.633 169.513 300.614 169.589C300.566 169.78 300.447 169.828 300.185 169.918L300.109 169.947C299.594 170.133 299.385 170.514 299.504 171.057C299.561 171.31 299.661 171.548 299.756 171.777L299.751 171.781Z" fill="#343434"/>
<path d="M293.278 173.644C293.326 173.53 293.469 173.177 293.188 172.901C292.888 172.606 292.564 172.815 292.426 172.911C292.34 172.968 292.259 173.025 292.183 173.092C292.102 173.154 292.021 173.22 291.93 173.273C291.697 173.416 291.545 173.482 291.383 173.459C291.354 173.354 291.383 173.244 291.421 173.077C291.435 173.02 291.445 172.968 291.459 172.911L291.487 172.758C291.559 172.396 291.63 172.039 291.678 171.676C291.702 171.495 291.583 171.219 291.397 171.143C291.23 171.071 290.963 171.048 290.782 171.157C290.601 171.267 290.43 171.462 290.349 171.657C290.154 172.11 289.987 172.568 289.854 173.011C289.782 173.244 289.787 173.497 289.806 173.711C289.839 174.13 290.016 174.497 290.301 174.736C290.587 174.969 290.968 175.074 291.383 175.026C291.859 174.974 292.283 174.793 292.654 174.483C292.811 174.354 292.964 174.197 293.097 174.021C293.183 173.906 293.235 173.778 293.288 173.649L293.278 173.644Z" fill="#343434"/>
<path d="M292.793 166.74H292.822C292.984 166.693 293.155 166.65 293.326 166.583C293.512 166.507 293.617 166.283 293.646 166.164C293.688 165.973 293.536 165.768 293.412 165.697C293.012 165.473 292.555 165.42 292.045 165.539C291.755 165.606 291.54 165.84 291.478 166.149C291.44 166.335 291.421 166.516 291.397 166.716L291.388 166.807C291.331 166.816 291.278 166.831 291.226 166.835C291.169 166.835 291.107 166.835 291.05 166.835C290.955 166.835 290.864 166.835 290.769 166.85C290.359 166.907 290.164 167.102 290.069 167.255C289.978 167.402 289.897 167.66 290.026 168.036C290.212 168.579 290.597 169.027 291.197 169.408C291.378 169.523 291.607 169.566 291.798 169.518C291.874 169.499 291.94 169.466 291.993 169.423C292.031 169.389 292.06 169.356 292.083 169.313C292.264 168.999 292.064 168.741 291.94 168.584C291.879 168.508 291.807 168.432 291.736 168.365C291.664 168.289 291.593 168.222 291.54 168.151C292.541 167.946 292.679 167.774 292.793 166.735V166.74Z" fill="#343434"/>
<path d="M296.056 176.179C296.208 176.065 296.384 175.931 296.57 175.779C296.699 175.669 296.832 175.55 296.965 175.431C297.113 175.288 297.17 175.031 297.146 174.85C297.122 174.645 296.879 174.45 296.694 174.435C296.379 174.407 296.132 174.421 295.922 174.483C295.784 174.521 295.67 174.593 295.541 174.683C295.532 174.388 295.522 174.14 295.508 173.892C295.479 173.344 295.122 173.287 295.012 173.277C294.746 173.263 294.493 173.416 294.398 173.482C294.26 173.578 294.127 173.759 294.055 173.949C293.793 174.707 293.907 175.422 294.389 176.012C294.808 176.527 295.494 176.599 296.051 176.174L296.056 176.179Z" fill="#343434"/>
<path d="M294.403 169.875C294.431 170.247 294.731 170.581 295.084 170.638C295.36 170.681 295.612 170.609 295.822 170.438C295.884 170.385 295.941 170.323 295.993 170.257C296.046 170.19 296.079 170.118 296.103 170.056L296.127 170.004C296.127 170.004 296.136 169.985 296.141 169.975C296.303 169.499 296.336 169.056 296.232 168.622C296.155 168.303 295.932 168.089 295.631 168.046C295.36 168.003 295.108 168.131 294.946 168.394C294.779 168.665 294.607 168.946 294.474 169.251C294.403 169.418 294.379 169.628 294.398 169.875H294.403Z" fill="#343434"/>
<path d="M299.127 155.209C299.184 155.085 299.156 154.9 299.06 154.804C298.975 154.714 298.856 154.676 298.727 154.695C298.565 154.723 298.413 154.842 298.336 155.009C298.322 155.043 298.317 155.133 298.317 155.171C298.317 155.228 298.322 155.328 298.389 155.409C298.46 155.5 298.57 155.543 298.694 155.529C298.794 155.514 298.889 155.471 298.97 155.405C299.032 155.352 299.084 155.286 299.122 155.214L299.127 155.209Z" fill="#343434"/>
<path d="M319.87 146.008C319.693 146.556 319.965 148.167 320.322 148.634C320.379 148.71 320.446 148.791 320.536 148.863C321.051 149.244 321.637 149.673 322.48 150.016C323.037 150.283 323.651 150.173 324.18 149.735C324.266 149.663 324.351 149.582 324.432 149.492C324.704 149.187 324.923 148.877 325.075 148.572C325.352 148.019 325.404 147.481 325.223 147.014C325.042 146.547 324.647 146.18 324.075 145.956C323.737 145.823 323.504 145.656 323.332 145.418C323.242 145.294 323.146 145.165 323.042 145.051C322.508 144.455 321.799 144.307 321.084 144.65C320.479 144.941 320.07 145.399 319.874 146.013L319.87 146.008ZM323.647 146.938C323.766 146.99 323.875 147.057 323.97 147.138C324.118 147.262 324.166 147.381 324.113 147.5C323.989 147.776 323.851 148.067 323.661 148.281C323.351 148.639 323.213 148.662 322.742 148.458C322.484 148.348 322.237 148.224 321.989 148.1C321.841 148.024 321.694 147.953 321.546 147.881C321.418 147.819 321.327 147.719 321.26 147.548C321.175 147.338 321.084 147.128 320.984 146.909L320.879 146.671C320.979 146.256 321.132 145.989 321.408 145.78C321.737 145.527 322.018 145.537 322.318 145.818C322.37 145.866 322.418 145.918 322.465 145.985C322.775 146.418 323.175 146.742 323.656 146.947L323.647 146.938Z" fill="#343434"/>
<path d="M318.54 150.797C318.621 150.797 318.707 150.802 318.793 150.807V150.821C318.807 150.978 318.817 151.121 318.85 151.264C318.979 151.879 319.379 152.255 320.012 152.341C320.555 152.412 321.16 152.207 321.603 151.841C321.784 151.688 321.936 151.512 322.046 151.316C322.189 151.059 322.232 150.764 322.151 150.568C322.108 150.454 322.022 150.373 321.917 150.34C321.56 150.225 321.351 150.464 321.222 150.606L321.17 150.664C320.917 150.931 320.703 151.102 320.412 151.154C320.26 151.183 320.146 151.174 320.084 151.126C320.022 151.078 319.974 150.973 319.955 150.816C319.955 150.788 319.955 150.754 319.955 150.726C319.955 150.664 319.955 150.602 319.941 150.545C319.826 149.911 319.507 149.606 318.869 149.515C318.76 149.501 318.645 149.496 318.531 149.492C318.436 149.492 318.34 149.492 318.25 149.472H318.245C318.417 149.32 318.588 149.163 318.745 148.996C318.893 148.839 318.817 148.558 318.76 148.429C318.683 148.267 318.45 148.181 318.288 148.21C317.764 148.296 317.307 148.577 316.959 149.006C316.788 149.22 316.773 149.525 316.773 149.649C316.773 150.216 317.14 150.64 317.707 150.735C317.974 150.778 318.24 150.788 318.545 150.797H318.54Z" fill="#343434"/>
<path d="M321.417 144.422C321.569 144.403 321.689 144.322 321.746 144.203C321.779 144.126 321.803 144.05 321.831 143.974C321.86 143.883 321.889 143.797 321.927 143.731C321.941 143.702 321.974 143.674 322.022 143.635C322.108 143.731 322.174 143.802 322.222 143.883C322.555 144.45 323.089 144.703 323.803 144.636C324.08 144.608 324.365 144.603 324.665 144.612C324.722 144.612 324.789 144.636 324.87 144.66L324.78 145.356C324.77 145.422 324.794 145.494 324.842 145.541C324.889 145.594 324.956 145.618 325.027 145.613C325.284 145.589 325.461 145.508 325.589 145.403C325.775 145.246 325.856 145.036 325.918 144.874C326.061 144.488 326.042 144.112 325.851 143.807C325.666 143.507 325.342 143.321 324.942 143.283C324.57 143.245 324.241 143.269 323.975 143.34C323.403 143.502 323.117 143.397 322.932 142.945C322.884 142.83 322.808 142.74 322.741 142.663C322.536 142.43 322.255 142.287 321.951 142.273C321.631 142.254 321.336 142.349 321.069 142.592C320.598 143.016 320.555 143.788 320.979 144.279C321.074 144.393 321.25 144.45 321.422 144.422H321.417Z" fill="#343434"/>
<path d="M327.076 146.185C327.037 146.271 327.014 146.418 327.104 146.609C327.138 146.676 327.204 146.728 327.28 146.737L327.447 146.761C327.576 146.776 327.704 146.79 327.833 146.823C327.852 146.823 327.866 146.833 327.881 146.838L327.776 146.928C327.204 147.438 327.176 147.509 327.28 148.2C327.295 148.291 327.309 148.391 327.323 148.51C327.166 148.562 327.023 148.51 326.804 148.386C326.756 148.358 326.704 148.329 326.656 148.296C326.523 148.215 326.39 148.129 326.233 148.072C326.066 148.01 325.818 148.072 325.675 148.2C325.542 148.334 325.494 148.596 325.571 148.763C325.761 149.191 326.142 149.525 326.618 149.677C327.095 149.83 327.599 149.782 328 149.544C328.066 149.506 328.123 149.463 328.181 149.415C328.514 149.139 328.614 148.753 328.466 148.296C328.423 148.167 328.371 148.033 328.314 147.895C328.462 147.838 328.6 147.786 328.728 147.705C329.133 147.462 329.267 146.942 329.033 146.542C328.719 145.989 328.009 145.723 327.385 145.923C327.195 145.985 327.114 146.099 327.076 146.185Z" fill="#343434"/>
<path d="M319.126 146.904C319.15 146.88 319.178 146.861 319.202 146.838C319.307 146.737 319.283 146.604 319.269 146.523C319.269 146.499 319.259 146.475 319.259 146.447C319.25 146.352 319.183 146.275 319.093 146.251C318.955 146.213 318.802 146.194 318.655 146.17C318.245 146.113 317.907 146.066 317.702 145.699H317.721C317.959 145.699 318.159 145.699 318.359 145.699C319.117 145.675 319.412 145.318 319.521 145.027C319.621 144.765 319.769 144.612 320.05 144.493C320.217 144.422 320.312 144.188 320.288 144.026C320.264 143.855 320.112 143.707 319.983 143.655C319.407 143.431 318.94 143.612 318.674 144.169C318.612 144.293 318.559 144.422 318.502 144.555L318.474 144.617L318.288 144.627C318.05 144.641 317.821 144.65 317.597 144.684C316.997 144.77 316.683 145.175 316.735 145.804C316.783 146.356 317.069 146.752 317.569 146.952C317.978 147.114 318.588 147.357 319.136 146.904H319.126Z" fill="#343434"/>
<path d="M325.737 150.359C325.685 150.306 325.609 150.283 325.537 150.297C325.466 150.311 325.404 150.359 325.371 150.425L325.109 150.992L324.833 151.14C324.623 151.255 324.456 151.345 324.28 151.431C324.142 151.498 324.113 151.493 324.013 151.374C323.985 151.336 323.961 151.293 323.937 151.25C323.885 151.159 323.828 151.059 323.732 150.978C323.589 150.859 323.351 150.74 323.146 150.788C322.942 150.835 322.756 151.059 322.704 151.245C322.642 151.45 322.637 151.693 322.704 151.893C322.823 152.293 323.094 152.608 323.456 152.76C323.813 152.913 324.228 152.884 324.59 152.694C324.923 152.517 325.314 152.298 325.671 152.041C325.695 152.022 325.723 152.003 325.747 151.984C326.114 151.679 326.252 151.24 326.118 150.778C326.076 150.635 325.971 150.549 325.861 150.464C325.823 150.435 325.78 150.402 325.737 150.359Z" fill="#343434"/>
<path d="M301.523 141.682C301.461 141.682 301.399 141.715 301.356 141.763L300.875 142.335C300.503 141.553 299.841 141.448 299.16 141.544C299.198 141.463 299.227 141.391 299.26 141.32C299.422 140.929 299.394 140.515 299.165 140.095C299.041 139.867 298.779 139.719 298.513 139.728C298.289 139.738 298.103 139.852 298.017 140.043C297.851 140.4 297.608 140.691 297.346 141.001C297.25 141.115 297.15 141.234 297.06 141.353C296.769 141.725 296.684 142.168 296.827 142.568C296.974 142.968 297.322 143.254 297.789 143.354C298.06 143.412 298.346 143.388 298.565 143.364C298.775 143.34 298.979 143.297 299.208 143.245L299.365 143.211L299.437 143.311C299.541 143.469 299.637 143.607 299.741 143.736C299.989 144.041 300.294 144.212 300.627 144.236C300.937 144.26 301.242 144.155 301.508 143.931C301.523 143.921 301.537 143.907 301.551 143.898C301.756 143.712 301.942 143.473 302.085 143.202C302.385 142.625 302.17 142.23 301.699 141.749C301.656 141.701 301.594 141.677 301.527 141.682H301.523Z" fill="#343434"/>
<path d="M305.671 139.443C305.486 139.547 305.362 139.728 305.338 139.933C305.319 140.095 305.328 140.276 305.371 140.448C305.395 140.562 305.433 140.672 305.476 140.801C304.457 140.72 304.3 140.786 303.614 141.439C303.561 141.401 303.514 141.334 303.447 141.229C303.399 141.153 303.352 141.077 303.295 141.01C302.923 140.586 302.547 140.672 302.299 140.82C301.956 141.024 301.828 141.372 301.942 141.768C302.071 142.197 302.352 142.564 302.78 142.859C303.452 143.316 304.104 143.302 304.771 142.807C304.871 142.735 304.966 142.649 305.057 142.573L305.086 142.549L305.243 142.573C305.419 142.606 305.581 142.635 305.743 142.649C306.181 142.687 306.576 142.568 306.872 142.325C306.948 142.263 307.014 142.192 307.076 142.111C307.367 141.734 307.434 141.234 307.257 140.734C307.148 140.424 306.962 140.157 306.781 139.89L306.648 139.695C306.552 139.552 306.386 139.471 306.267 139.414C306.081 139.328 305.857 139.333 305.676 139.438L305.671 139.443Z" fill="#343434"/>
<path d="M306.172 134.425C305.876 134.43 305.638 134.611 305.5 134.925C305.419 135.111 305.433 135.33 305.533 135.502C305.629 135.664 305.79 135.764 305.971 135.783C306.095 135.793 306.219 135.793 306.348 135.793C306.457 135.793 306.572 135.793 306.714 135.802C306.872 135.817 306.991 135.831 307.091 135.883C307.057 135.912 307.019 135.931 306.981 135.955C306.9 136.002 306.814 136.04 306.729 136.079C306.595 136.141 306.457 136.202 306.333 136.283C305.871 136.579 305.771 136.993 306.033 137.494C306.062 137.546 306.091 137.594 306.124 137.651C305.981 137.651 305.852 137.66 305.724 137.665H305.59C305.448 137.665 305.29 137.665 305.133 137.718C305.076 137.737 305.024 137.78 304.967 137.818C304.957 137.403 304.824 136.974 304.543 136.526C304.004 135.674 303.209 135.321 302.18 135.488L302.218 135.712L302.104 135.502L301.709 135.55C301.452 135.578 301.194 135.612 300.932 135.64C301.028 135.588 301.118 135.516 301.204 135.421C301.266 135.35 301.275 135.245 301.228 135.159C300.58 134.006 300.389 133.658 300.38 133.391C300.38 133.396 300.389 133.401 300.394 133.406C300.494 133.515 300.594 133.629 300.69 133.744C300.785 133.858 300.88 133.968 300.98 134.077C301.38 134.516 301.847 134.625 302.361 134.401C302.533 134.33 302.733 134.292 302.904 134.273C303.099 134.244 303.195 134.258 303.266 134.325V134.349C303.238 134.444 303.214 134.54 303.19 134.64C303.085 135.13 303.409 135.459 303.519 135.569C303.662 135.716 303.852 135.783 304.038 135.75C304.128 135.736 304.214 135.693 304.29 135.631C304.362 135.569 304.424 135.492 304.466 135.392C304.7 134.873 304.909 134.196 304.466 133.553C304.023 132.905 303.314 132.872 302.747 132.915C302.561 132.929 302.38 132.958 302.176 132.991L302.014 133.015C301.985 132.972 301.956 132.929 301.928 132.886C301.814 132.715 301.704 132.548 301.571 132.405L301.523 132.357C301.309 132.119 301.08 131.876 300.794 131.714C300.375 131.476 299.894 131.457 299.47 131.657C299.07 131.847 298.794 132.205 298.718 132.638C298.532 133.691 299.213 135.121 300.156 135.626C300.247 135.678 300.342 135.707 300.432 135.726C299.942 135.85 299.523 136.112 299.184 136.522C298.851 136.931 298.77 137.398 298.956 137.842C299.027 138.008 299.113 138.18 299.204 138.342C299.127 138.27 299.032 138.204 298.913 138.204C298.718 138.208 298.532 138.242 298.346 138.27C298.265 138.285 298.18 138.299 298.099 138.309L298.013 138.323C298.013 138.323 298.003 138.323 297.999 138.323C298.522 137.856 298.584 137.503 298.284 136.841C298.246 136.76 298.199 136.679 298.156 136.598L298.089 136.484C298.089 136.484 298.075 136.46 298.065 136.445L298.903 136.455C298.984 136.455 299.065 136.412 299.108 136.336C299.332 135.921 299.232 135.54 298.842 135.311C298.299 134.997 297.675 134.954 296.936 135.173C296.651 135.259 296.465 135.483 296.446 135.759C296.427 136.055 296.446 136.307 296.498 136.531C296.546 136.727 296.627 136.908 296.713 137.098C296.717 137.113 296.722 137.122 296.727 137.136C296.717 137.136 296.703 137.141 296.694 137.146C296.503 137.194 296.346 137.232 296.193 137.289C295.812 137.432 295.55 137.684 295.465 137.999C295.379 138.313 295.465 138.666 295.727 138.995C296.127 139.5 296.732 139.805 297.394 139.838C297.999 139.867 298.584 139.666 299.065 139.266C299.142 139.204 299.218 139.133 299.289 139.061C299.389 138.957 299.427 138.766 299.385 138.618C299.599 138.909 299.875 139.161 300.27 139.304C300.27 139.304 300.27 139.314 300.27 139.319C300.223 139.5 300.147 139.805 300.428 140.043L300.48 140.086C300.68 140.257 300.904 140.453 301.175 140.524C301.456 140.6 301.885 140.672 302.323 140.596C302.904 140.496 303.419 140.267 303.852 139.905C304.181 139.628 304.466 139.281 304.709 138.856C304.752 138.78 304.771 138.704 304.805 138.623C304.819 138.652 304.833 138.68 304.847 138.709C304.928 138.852 305.086 138.928 305.171 138.966C305.943 139.281 306.7 139.271 307.424 138.942C307.548 138.885 307.653 138.818 307.748 138.742C308.124 138.428 308.248 137.951 308.072 137.408C308.034 137.289 307.981 137.174 307.919 137.046L307.91 137.022C307.986 136.97 308.048 136.922 308.11 136.884C308.439 136.665 308.629 136.345 308.639 135.998C308.648 135.612 308.448 135.235 308.086 134.964C307.434 134.468 306.729 134.42 306.186 134.435L306.172 134.425ZM300.871 138.108C300.785 137.985 300.699 137.865 300.623 137.737C300.575 137.656 300.566 137.575 300.594 137.518C300.623 137.46 300.694 137.441 300.747 137.441C300.88 137.437 301.018 137.456 301.156 137.47C300.971 137.632 300.875 137.865 300.871 138.108ZM301.175 138.742C301.404 138.918 301.723 138.985 302.014 138.89C302.142 138.847 302.256 138.785 302.352 138.704C302.609 138.49 302.747 138.166 302.666 137.875C302.623 137.727 302.533 137.575 302.423 137.47C302.395 137.441 302.356 137.422 302.323 137.394L303.252 137.065C303.428 137.313 303.447 137.579 303.309 137.899C303.076 138.451 302.704 138.804 302.199 138.942C301.794 139.052 301.385 139.071 300.975 138.995L301.142 138.814C301.142 138.814 301.161 138.766 301.171 138.742H301.175Z" fill="#343434"/>
<path d="M322.851 146.766L322.765 146.718C322.741 146.704 322.713 146.694 322.684 146.69L322.575 146.675C322.47 146.656 322.36 146.642 322.246 146.637C322.108 146.637 321.965 146.685 321.856 146.799C321.736 146.909 321.67 147.057 321.665 147.2C321.665 147.495 321.803 147.781 322.046 147.962C322.265 148.129 322.537 148.181 322.784 148.105C322.86 148.081 322.932 148.038 322.999 147.986C323.118 147.886 323.213 147.748 323.27 147.624C323.384 147.357 323.289 147.057 323.032 146.88C322.98 146.842 322.922 146.809 322.856 146.776L322.851 146.766Z" fill="#343434"/>
<path d="M131.5 115.08C132.252 114.17 133.229 113.574 134.343 113.217C135.71 112.779 137.072 112.312 138.454 111.935C140.259 111.44 142.14 111.73 143.978 111.502C144.25 111.468 144.54 111.592 144.821 111.654C147.96 112.359 150.003 114.346 151.151 117.262C152.542 120.793 152.523 124.419 151.589 128.055C151.466 128.536 151.227 128.993 150.989 129.432C149.322 132.543 146.669 134.573 143.54 136.007C140.063 137.603 136.734 137.27 133.519 135.168C127.975 131.538 126.608 124.357 128.404 120.193C129.056 118.277 130.209 116.638 131.495 115.08H131.5ZM134.377 115.59C133.667 116.033 133.086 116.71 132.524 117.348C132.1 117.829 131.786 118.406 131.447 118.954C128.814 123.214 129.476 128.76 133.176 132.138C135.615 134.363 138.492 135.178 141.745 134.049C144.026 133.253 145.96 131.924 147.641 130.213C148.732 129.103 149.36 127.735 149.67 126.239C150.275 123.29 150.151 120.393 148.817 117.62C147.35 114.58 144.964 113.312 141.63 113.832C141.278 113.889 140.93 113.979 140.582 114.075C139.935 114.256 139.692 113.798 139.339 113.217C137.501 113.851 135.891 114.646 134.377 115.595V115.59Z" fill="#343434"/>
<path d="M158.438 100.919C158.477 100.047 159.248 99.5371 160.105 99.6895C160.648 99.7848 161.182 99.9516 161.72 100.085C161.872 99.8039 161.963 99.6133 162.077 99.437C162.663 98.5126 163.087 98.3792 163.992 98.8986C164.463 99.1702 164.887 99.5228 165.383 99.8706C165.64 99.5323 165.811 99.3179 165.973 99.0892C166.188 98.8033 166.369 98.4888 166.607 98.222C167.026 97.7598 167.564 97.5835 168.164 97.7836C168.75 97.9742 169.126 98.6603 169.007 99.3465C168.921 99.8325 168.75 100.304 168.588 100.876C169.007 100.886 169.355 100.914 169.702 100.905C172.093 100.819 174.041 101.781 175.585 103.53C177.428 105.617 178.304 108.119 177.999 110.882C177.566 114.761 175.48 117.672 172.255 119.792C171.779 120.107 171.236 120.326 170.698 120.517C168.993 121.122 167.235 121.427 165.425 121.427C163.711 121.427 162.172 120.917 160.839 119.849C157.291 117.019 155.528 113.293 155.657 108.786C155.724 106.498 156.567 104.431 158.705 103.244C158.605 102.458 158.405 101.686 158.434 100.924L158.438 100.919ZM165.483 101.6C164.673 101.538 164.206 101.024 163.678 100.347C163.368 100.614 163.106 100.819 162.873 101.048C162.525 101.386 162.12 101.448 161.682 101.3C161.077 101.1 160.477 100.876 159.867 100.657C159.043 101.843 160.353 102.367 160.491 103.182C159.843 104.44 159.391 105.755 158.586 106.942C158.067 107.704 157.953 108.857 157.957 109.834C157.957 113.269 159.272 116.109 162.111 118.158C163.254 118.982 164.516 119.359 165.945 119.316C170.126 119.187 173.165 117.31 175.118 113.598C176.761 110.477 176.189 105.727 172.598 103.511C171.184 102.639 169.655 102.434 168.055 102.567C167.797 102.591 167.44 102.72 167.321 102.92C166.702 103.921 165.687 103.997 164.692 104.135C163.582 104.288 162.473 104.411 161.091 104.583C161.372 104.207 161.449 103.987 161.582 103.949C162.401 103.711 163.235 103.497 164.063 103.306C164.749 103.149 165.445 103.034 166.102 102.906C166.145 102.224 166.154 101.662 165.483 101.615V101.6Z" fill="#343434"/>
<path d="M146.983 117.591C148.045 117.963 148.674 118.844 148.593 119.907C148.45 121.774 148.541 123.58 148.884 125.434C149.184 127.059 147.955 128.398 146.378 128.641C144.416 128.941 142.816 127.897 142.311 125.972C142.182 125.491 142.154 124.976 142.011 124.5C141.873 124.043 141.516 123.785 141.025 123.866C140.458 123.961 139.906 124.185 139.344 124.209C138.791 124.233 138.182 124.19 137.691 123.966C136.853 123.58 136.438 122.823 136.424 121.879C136.41 120.893 136.943 120.245 137.758 119.845C138.448 119.506 139.196 119.287 139.977 118.987C139.782 118.339 139.601 117.801 139.468 117.253C139.272 116.476 139.544 115.842 140.163 115.356C141.52 114.298 142.84 114.637 143.621 116.238C143.711 116.428 143.787 116.619 143.811 116.671C144.95 116.995 145.988 117.243 146.983 117.591ZM144.468 118.382C143.878 118.668 143.54 119.687 142.687 119.178C142.011 118.773 142.378 118.01 142.382 117.396C142.382 117.253 142.43 117.114 142.44 116.972C142.463 116.262 142.006 116.009 141.301 116.376C141.125 116.471 141.001 116.671 140.815 116.857C140.992 117.467 141.225 118.067 141.335 118.692C141.487 119.549 141.092 120.24 140.277 120.593C139.691 120.85 139.053 120.998 138.463 121.246C138.034 121.427 137.801 121.789 137.882 122.275C137.962 122.761 138.444 123.09 139.015 122.999C139.577 122.908 140.125 122.723 140.687 122.632C142.163 122.394 143.159 123.09 143.502 124.59C143.616 125.076 143.63 125.591 143.787 126.063C144.14 127.13 145.221 127.602 146.421 127.283C147.317 127.044 147.802 126.134 147.583 125.048C147.526 124.772 147.417 124.5 147.307 124.238C146.955 123.409 146.993 122.57 147.179 121.708C147.298 121.15 147.402 120.583 147.436 120.016C147.464 119.483 147.217 119.025 146.702 118.811C146.112 118.568 145.502 118.372 144.959 118.182C144.602 118.325 144.535 118.349 144.468 118.382Z" fill="#343434"/>
<path d="M144.745 120.24C144.169 120.078 143.545 120.383 143.35 120.926C143.117 121.565 143.464 122.246 144.131 122.446C144.779 122.646 145.45 122.232 145.574 121.555C145.684 120.969 145.326 120.402 144.745 120.24Z" fill="#343434"/>
<path d="M127.285 352.997C129.748 358.705 127.871 368.545 120.279 373.519C115.874 376.402 111.311 376.859 106.548 374.672C102.257 372.704 98.6228 369.926 96.3414 365.662C96.0176 365.057 95.6889 364.428 95.5222 363.775C94.2506 358.791 94.222 353.826 96.1223 348.985C97.6988 344.987 100.495 342.267 104.795 341.299C105.176 341.214 105.581 341.042 105.953 341.09C108.468 341.404 111.049 341.009 113.521 341.685C115.416 342.2 117.284 342.838 119.155 343.439C120.684 343.934 122.023 344.749 123.056 345.993C124.818 348.123 126.395 350.372 127.29 352.997H127.285ZM112.306 343.439C111.825 344.235 111.487 344.864 110.601 344.616C110.13 344.482 109.649 344.358 109.168 344.282C104.6 343.567 101.328 345.307 99.3229 349.471C97.494 353.269 97.3226 357.238 98.1561 361.283C98.5752 363.332 99.442 365.209 100.933 366.729C103.238 369.078 105.886 370.903 109.015 371.99C113.473 373.538 117.417 372.418 120.756 369.369C125.828 364.742 126.733 357.147 123.127 351.306C122.661 350.553 122.232 349.762 121.651 349.104C120.879 348.227 120.084 347.298 119.108 346.693C117.031 345.402 114.831 344.301 112.306 343.439Z" fill="#343434"/>
<path d="M85.7727 329.773C88.7065 331.398 89.8591 334.233 89.9496 337.368C90.1259 343.539 87.7111 348.651 82.8483 352.525C81.0194 353.983 78.9094 354.689 76.5614 354.684C74.08 354.684 71.67 354.264 69.3362 353.435C68.598 353.173 67.8502 352.873 67.2024 352.444C62.7873 349.542 59.9249 345.554 59.3295 340.237C58.9056 336.444 60.1106 333.018 62.6349 330.159C64.7496 327.762 67.4215 326.452 70.6984 326.562C71.1746 326.576 71.6509 326.538 72.2225 326.524C72.0034 325.737 71.7652 325.094 71.6509 324.427C71.4842 323.488 72.0034 322.55 72.8035 322.288C73.6322 322.016 74.3657 322.259 74.9373 322.888C75.2659 323.25 75.5183 323.679 75.8089 324.075C76.0327 324.379 76.2708 324.68 76.6185 325.142C77.2948 324.665 77.8759 324.179 78.5237 323.808C79.762 323.093 80.3431 323.279 81.148 324.546C81.3051 324.789 81.429 325.051 81.6385 325.432C82.3768 325.251 83.1055 325.023 83.8532 324.894C85.0297 324.689 86.0822 325.385 86.1346 326.581C86.1823 327.629 85.9013 328.687 85.7679 329.764L85.7727 329.773ZM75.6422 329.297C76.5423 329.473 77.4949 329.63 78.4379 329.845C79.581 330.107 80.7146 330.397 81.8386 330.721C82.0196 330.774 82.1243 331.079 82.5101 331.593C80.6193 331.36 79.0952 331.193 77.5759 330.979C76.2185 330.788 74.8277 330.683 73.9752 329.316C73.8085 329.044 73.3227 328.863 72.9702 328.835C70.7746 328.654 68.6837 328.935 66.7452 330.131C61.8205 333.166 61.0394 339.679 63.2922 343.953C65.9736 349.042 70.1363 351.615 75.866 351.791C77.8235 351.853 79.5477 351.339 81.1194 350.21C85.0106 347.408 86.8062 343.51 86.811 338.803C86.811 337.464 86.6538 335.887 85.9489 334.843C84.8439 333.218 84.2247 331.417 83.3389 329.692C83.5294 328.577 85.3202 327.863 84.1914 326.233C83.3531 326.533 82.5339 326.843 81.7052 327.114C81.1051 327.31 80.5526 327.224 80.0716 326.767C79.7477 326.457 79.3953 326.176 78.9666 325.809C78.2474 326.733 77.6044 327.443 76.4947 327.524C75.5707 327.591 75.5802 328.363 75.6422 329.297Z" fill="#343434"/>
<path d="M106.186 348.17C106.214 348.104 106.324 347.837 106.448 347.575C107.519 345.383 109.329 344.921 111.187 346.369C112.039 347.036 112.406 347.899 112.139 348.966C111.953 349.719 111.701 350.453 111.439 351.339C112.515 351.744 113.539 352.049 114.482 352.511C115.597 353.064 116.335 353.955 116.311 355.303C116.288 356.599 115.726 357.638 114.578 358.167C113.906 358.477 113.068 358.529 112.315 358.5C111.544 358.467 110.786 358.157 110.01 358.033C109.339 357.924 108.848 358.272 108.658 358.901C108.462 359.553 108.419 360.254 108.243 360.916C107.553 363.556 105.357 364.985 102.666 364.576C100.504 364.247 98.8175 362.408 99.2319 360.182C99.7034 357.643 99.8273 355.17 99.632 352.611C99.5224 351.158 100.385 349.948 101.837 349.438C103.204 348.956 104.623 348.623 106.186 348.175V348.17ZM104.614 350.243C103.871 350.51 103.033 350.772 102.223 351.105C101.518 351.401 101.18 352.025 101.218 352.759C101.261 353.535 101.404 354.312 101.566 355.074C101.818 356.251 101.871 357.404 101.389 358.538C101.237 358.901 101.089 359.272 101.013 359.649C100.718 361.135 101.38 362.379 102.609 362.708C104.257 363.151 105.733 362.498 106.219 361.04C106.433 360.397 106.457 359.692 106.61 359.024C107.081 356.976 108.443 356.023 110.467 356.342C111.239 356.466 111.991 356.723 112.763 356.842C113.544 356.966 114.201 356.518 114.311 355.846C114.421 355.175 114.101 354.679 113.516 354.436C112.706 354.098 111.834 353.893 111.029 353.54C109.915 353.054 109.372 352.106 109.581 350.934C109.734 350.076 110.053 349.252 110.296 348.418C110.043 348.161 109.877 347.889 109.629 347.76C108.667 347.26 108.034 347.603 108.072 348.575C108.076 348.771 108.143 348.966 108.143 349.157C108.148 350.005 108.658 351.048 107.729 351.601C106.557 352.297 106.1 350.905 105.285 350.51C105.2 350.467 105.104 350.434 104.614 350.238V350.243Z" fill="#343434"/>
<path d="M104.905 353.064C105.696 352.844 106.548 353.259 106.82 354.002C107.139 354.874 106.662 355.808 105.753 356.085C104.867 356.356 103.943 355.789 103.771 354.865C103.624 354.06 104.11 353.288 104.905 353.064Z" fill="#343434"/>
<path d="M248.584 359.749C248.456 359.21 248.341 358.72 248.227 358.229C247.66 355.784 247.57 353.345 248.251 350.905C248.58 349.733 248.98 348.58 249.723 347.608C250.17 347.022 250.68 346.455 251.266 346.012C253.018 344.692 255.171 344.911 256.7 346.493C257.429 347.246 257.9 348.146 258.186 349.147C258.896 351.625 258.486 353.931 257.119 356.099C256.167 357.609 254.957 358.886 253.59 360.03C253.161 360.387 252.728 360.735 252.256 361.116C252.256 361.645 252.533 362.088 252.742 362.536C254.852 367.106 258.11 370.665 262.368 373.309C265.607 375.32 269.117 376.669 272.86 377.364C284.953 379.604 296.679 378.308 307.986 373.481C314.097 370.87 319.483 367.191 324.008 362.288C326.928 359.12 329.304 355.57 331.291 351.753C332.796 348.856 334.077 345.859 335.015 342.729C337.677 333.861 337.449 325.099 334.015 316.46C332.724 313.206 331.157 310.09 329.276 307.136C327.742 304.729 325.956 302.533 323.932 300.527C323.008 299.607 322.074 298.707 320.56 298.202C321.055 298.092 321.303 297.973 321.536 298.001C322.194 298.082 322.808 298.311 323.327 298.726C324.27 299.483 325.232 300.217 326.113 301.041C327.709 302.547 329.062 304.272 330.281 306.092C332.962 310.099 335.101 314.383 336.606 318.967C338.563 324.913 338.963 330.988 338.016 337.168C337.158 342.757 335.172 347.951 332.557 352.93C331.343 355.241 329.962 357.447 328.433 359.563C323.632 366.196 317.426 371.137 310.086 374.667C301.109 378.989 291.592 380.819 281.662 380.623C277.414 380.538 273.213 380.037 269.122 378.856C262.234 376.869 256.538 373.147 252.352 367.258C251.623 366.238 251.023 365.128 250.394 364.037C250.189 363.68 250.085 363.26 249.951 362.927C249.256 362.874 248.903 363.217 248.513 363.427C243.193 366.305 237.511 367.968 231.495 368.459C227.252 368.807 223.032 368.597 218.893 367.472C218.402 367.339 217.897 367.21 217.435 367.001C217.154 366.877 216.897 366.634 216.716 366.381C216.435 365.986 216.678 365.366 217.145 365.257C217.455 365.185 217.788 365.185 218.112 365.176C220.255 365.138 222.389 365.257 224.518 365.462C232.6 366.248 240.145 364.49 247.217 360.568C247.66 360.32 248.089 360.049 248.589 359.744L248.584 359.749ZM251.309 357.757C252.042 357.3 252.599 356.694 253.161 356.094C253.961 355.246 254.662 354.322 255.105 353.24C255.686 351.825 255.633 350.424 254.762 349.133C254.176 348.265 253.509 348.189 252.818 348.942C252.356 349.442 251.956 350.038 251.68 350.662C250.728 352.806 250.618 355.051 251.075 357.333C251.099 357.457 251.204 357.566 251.313 357.757H251.309Z" fill="#343434"/>
<path d="M210.52 371.909C209.101 371.446 207.743 370.846 206.486 370.05C205.943 369.707 205.414 369.312 204.957 368.859C203.952 367.863 203.666 366.643 203.986 365.271C204.209 364.304 204.667 363.441 205.233 362.646C206.477 360.902 208.01 359.41 209.506 357.89C209.668 357.728 209.868 357.6 210.063 357.476C210.458 357.238 210.873 357.247 211.244 357.495C211.625 357.747 211.801 358.157 211.668 358.586C211.506 359.115 211.311 359.649 211.03 360.116C210.225 361.469 209.363 362.793 208.529 364.132C208.163 364.723 207.791 365.314 207.481 365.938C207.186 366.534 207.277 366.839 207.786 367.287C208.634 368.03 209.653 368.487 210.644 368.997C211.263 369.312 211.901 369.598 212.521 369.917C212.806 370.065 213.087 370.241 213.335 370.441C213.826 370.832 213.987 371.341 213.802 371.78C213.616 372.223 213.135 372.485 212.53 372.442C212.254 372.423 211.982 372.356 211.711 372.28C211.311 372.171 210.915 372.032 210.515 371.909H210.52Z" fill="#343434"/>
</svg>
