<svg width="22" height="21" viewBox="0 0 22 21" fill="none" xmlns="http://www.w3.org/2000/svg">
<path d="M12.2917 2H5.45833C5.00526 2 4.57073 2.17998 4.25036 2.50036C3.92998 2.82073 3.75 3.25526 3.75 3.70833V17.375C3.75 17.8281 3.92998 18.2626 4.25036 18.583C4.57073 18.9033 5.00526 19.0833 5.45833 19.0833H15.7083C16.1614 19.0833 16.5959 18.9033 16.9163 18.583C17.2367 18.2626 17.4167 17.8281 17.4167 17.375V7.125M12.2917 2L17.4167 7.125M12.2917 2L12.2917 7.125H17.4167M14 11.3958H7.16667M14 14.8125H7.16667M8.875 7.97917H7.16667" stroke="white" stroke-width="2" stroke-linecap="round" stroke-linejoin="round"/>
</svg>
