<svg width="24" height="24" viewBox="0 0 24 24" fill="none" xmlns="http://www.w3.org/2000/svg">
<path d="M7 11.6227C7 11.9234 7.11172 12.1812 7.35234 12.4047L14.0383 18.9531C14.2273 19.1422 14.468 19.2453 14.7516 19.2453C15.3187 19.2453 15.7742 18.7984 15.7742 18.2227C15.7742 17.9391 15.6539 17.6898 15.4648 17.4922L9.44062 11.6227L15.4648 5.75312C15.6539 5.55547 15.7742 5.29766 15.7742 5.02266C15.7742 4.44687 15.3187 4 14.7516 4C14.468 4 14.2273 4.10312 14.0383 4.29219L7.35234 10.832C7.11172 11.0641 7 11.3219 7 11.6227Z" fill="#E9632C"/>
</svg>
