<svg width="24" height="24" viewBox="0 0 24 24" fill="none" xmlns="http://www.w3.org/2000/svg">
<path d="M16.7742 11.6227C16.7656 11.3219 16.6539 11.0641 16.4219 10.832L9.73594 4.29219C9.53828 4.10312 9.30625 4 9.02265 4C8.44687 4 8 4.44687 8 5.02266C8 5.29766 8.11172 5.55547 8.30937 5.75312L14.325 11.6227L8.30937 17.4922C8.11172 17.6898 8 17.9391 8 18.2227C8 18.7984 8.44687 19.2453 9.02265 19.2453C9.29765 19.2453 9.53828 19.1422 9.73594 18.9531L16.4219 12.4047C16.6625 12.1812 16.7742 11.9234 16.7742 11.6227Z" fill="#E9632C"/>
</svg>
