<svg width="92" height="93" viewBox="0 0 92 93" fill="none" xmlns="http://www.w3.org/2000/svg">
<path d="M69 69.5C81.7026 56.7975 81.7025 36.2026 69 23.5C56.2974 10.7975 35.7025 10.7975 23 23.5C10.2974 36.2026 10.2974 56.7974 23 69.5C35.7025 82.2025 56.2975 82.2026 69 69.5Z" fill="#F94343"/>
<path d="M63.0167 18.7404C66.2564 23.7965 68.1339 29.8104 68.1339 36.2593C68.1339 54.2208 53.5723 68.7862 35.607 68.7862C29.3679 68.7862 23.541 67.027 18.5918 63.9819C24.3729 73.0066 34.4889 78.9862 46.0015 78.9862C63.9631 78.9862 78.5285 64.4246 78.5285 46.4592C78.5285 34.7329 72.3238 24.4605 63.0205 18.7366L63.0167 18.7404Z" fill="#E53939"/>
<path d="M17.897 49.9355C17.897 33.2561 31.4168 19.7363 48.0962 19.7363C57.8459 19.7363 66.5118 24.3574 72.0335 31.5275C66.8171 22.4761 57.0445 16.3821 45.8486 16.3821C29.1692 16.3821 15.6494 29.9019 15.6494 46.5813C15.6494 53.511 17.9848 59.895 21.9114 64.9893C19.3585 60.559 17.897 55.419 17.897 49.9393V49.9355Z" fill="#F76363"/>
<path d="M65.1384 42.716C65.1384 42.6855 65.1384 42.655 65.1384 42.6245C65.1384 36.9044 61.002 31.6689 54.782 31.6689C49.8404 31.6689 46.9746 35.2216 45.9977 38.5452C45.0209 35.2216 42.1551 31.6689 37.2135 31.6689C30.9935 31.6689 26.8571 36.9044 26.8571 42.6245C26.8571 42.655 26.8571 42.6855 26.8571 42.716C26.8227 43.96 26.8571 56.6213 45.9901 66.9433C65.1269 56.6213 65.1575 43.96 65.1231 42.716H65.1384Z" fill="white"/>
</svg>
