<svg width="40" height="40" viewBox="0 0 40 40" fill="none" xmlns="http://www.w3.org/2000/svg">
<path d="M20.0002 38.8891C30.4323 38.8891 38.8891 30.4323 38.8891 20.0002C38.8891 9.56817 30.4323 1.11133 20.0002 1.11133C9.56817 1.11133 1.11133 9.56817 1.11133 20.0002C1.11133 30.4323 9.56817 38.8891 20.0002 38.8891Z" fill="#2C2C2C"/>
<path d="M20.0006 36.3138C29.0101 36.3138 36.3138 29.0101 36.3138 20.0006C36.3138 10.9911 29.0101 3.6875 20.0006 3.6875C10.9911 3.6875 3.6875 10.9911 3.6875 20.0006C3.6875 29.0101 10.9911 36.3138 20.0006 36.3138Z" fill="black"/>
<path d="M21.365 25.5041C21.365 26.2682 20.7726 26.8606 20.0085 26.8606C19.2443 26.8606 18.6348 26.2682 18.6348 25.5041C18.6348 24.7399 19.2529 24.1475 20.0085 24.1475C20.764 24.1475 21.365 24.7399 21.365 25.5041ZM18.9438 22.9541L18.755 13.1318H21.2534L21.0645 22.9541H18.9438Z" fill="white"/>
</svg>
