<svg width="40" height="40" viewBox="0 0 40 40" fill="none" xmlns="http://www.w3.org/2000/svg">
<path d="M20.0002 38.8889C30.4323 38.8889 38.8891 30.432 38.8891 20C38.8891 9.56793 30.4323 1.11108 20.0002 1.11108C9.56817 1.11108 1.11133 9.56793 1.11133 20C1.11133 30.432 9.56817 38.8889 20.0002 38.8889Z" fill="#0E8345"/>
<path d="M20.0004 36.3148C29.0108 36.3148 36.3152 29.0104 36.3152 20C36.3152 10.9896 29.0108 3.68518 20.0004 3.68518C10.9899 3.68518 3.68555 10.9896 3.68555 20C3.68555 29.0104 10.9899 36.3148 20.0004 36.3148Z" fill="black"/>
<path d="M17.9263 25.9719L12.8652 20.9108L14.687 19.0891L17.9263 22.3284L25.3159 14.9388L27.1376 16.7606L17.9263 25.9719Z" fill="white"/>
</svg>
